<?xml version="1.0" encoding="UTF-8"?>
<!DOCTYPE svg PUBLIC "-//W3C//DTD SVG 1.1//EN" "http://www.w3.org/Graphics/SVG/1.1/DTD/svg11.dtd">
<!-- Creator: CorelDRAW -->
<svg xmlns="http://www.w3.org/2000/svg" xml:space="preserve" width="2048px" height="2048px" style="shape-rendering:geometricPrecision; text-rendering:geometricPrecision; image-rendering:optimizeQuality; fill-rule:evenodd; clip-rule:evenodd"
viewBox="0 0 2048 2048"
 xmlns:xlink="http://www.w3.org/1999/xlink">
 <defs>
  <style type="text/css">
   <![CDATA[
    .fil2 {fill:none}
    .fil4 {fill:#7B838E}
    .fil3 {fill:#8E96A3}
    .fil1 {fill:#B39DDB}
    .fil0 {fill:#D1C4E9}
    .fil6 {fill:#FFC107}
    .fil5 {fill:#415065;fill-rule:nonzero}
    .fil9 {fill:#7CB342;fill-rule:nonzero}
    .fil7 {fill:#EF5350;fill-rule:nonzero}
    .fil8 {fill:#FFAB40;fill-rule:nonzero}
   ]]>
  </style>
   <clipPath id="id0">
    <path d="M1024 -0.0011811c565.539,0 1024,458.462 1024,1024 0,565.539 -458.462,1024 -1024,1024 -565.539,0 -1024,-458.462 -1024,-1024 0,-565.539 458.462,-1024 1024,-1024z"/>
   </clipPath>
 </defs>
 <g id="Layer_x0020_1">
  <metadata id="CorelCorpID_0Corel-Layer"/>
  <path class="fil0" d="M1024 -0.0011811c565.539,0 1024,458.462 1024,1024 0,565.539 -458.462,1024 -1024,1024 -565.539,0 -1024,-458.462 -1024,-1024 0,-565.539 458.462,-1024 1024,-1024z"/>
  <g style="clip-path:url(#id0)">
   <g id="_289369160">
    <g>
     <polygon id="_3062939041" class="fil1" points="1584,743.999 2719.88,1879.88 2719.88,2696.55 1584,1560.67 "/>
     <polygon id="_306294024" class="fil1" points="1584,1560.67 2719.88,2696.55 2719.76,2698.93 2719.41,2701.25 2718.83,2703.49 2718.05,2705.63 2717.07,2707.67 2715.9,2709.59 2714.55,2711.39 2713.05,2713.05 2711.39,2714.55 2709.59,2715.9 2707.67,2717.07 2705.63,2718.05 2703.49,2718.83 2701.25,2719.41 2698.93,2719.76 2696.55,2719.88 1560.67,1584 1563.05,1583.88 1565.37,1583.53 1567.61,1582.95 1569.75,1582.17 1571.79,1581.18 1573.71,1580.02 1575.51,1578.67 1577.17,1577.17 1578.67,1575.51 1580.02,1573.71 1581.18,1571.79 1582.17,1569.75 1582.95,1567.61 1583.53,1565.37 1583.88,1563.05 "/>
     <polygon id="_306293928" class="fil1" points="1560.67,1584 2696.55,2719.88 1623.22,2719.88 487.334,1584 "/>
     <polygon id="_306294192" class="fil1" points="487.334,1584 1623.22,2719.88 1620.83,2719.76 1618.51,2719.41 1616.28,2718.83 1614.13,2718.05 1612.09,2717.07 1610.17,2715.9 1608.37,2714.55 472.491,1578.67 474.287,1580.02 476.211,1581.18 478.251,1582.17 480.395,1582.95 482.631,1583.53 484.948,1583.88 "/>
     <polygon id="_306294096" class="fil1" points="1578.67,472.491 2714.55,1608.37 2715.9,1610.17 2717.07,1612.09 2718.05,1614.13 2718.83,1616.28 2719.41,1618.51 2719.76,1620.83 2719.88,1623.22 1584,487.334 1583.88,484.948 1583.53,482.631 1582.95,480.395 1582.17,478.251 1581.18,476.211 1580.02,474.287 "/>
     <polygon id="_306294216" class="fil1" points="1584,487.334 2719.88,1623.22 2719.88,1833.22 1584,697.335 "/>
     <polygon id="_306294288" class="fil1" points="1584,697.335 2719.88,1833.22 2719.88,1879.88 1584,743.999 "/>
    </g>
    <path id="_289368800" class="fil1" d="M1584 743.999l0 816.667c0,12.887 -10.448,23.3351 -23.3351,23.3351l-1073.33 0c-12.887,0 -23.3351,-10.448 -23.3351,-23.3351l0 -816.667 0 -46.6654 0 -210c0,-12.887 10.448,-23.3351 23.3351,-23.3351l1073.33 0c12.887,0 23.3351,10.448 23.3351,23.3351l0 210.001 0 46.6642z"/>
   </g>
  </g>
  <path class="fil2" d="M1024 -0.0011811c565.539,0 1024,458.462 1024,1024 0,565.539 -458.462,1024 -1024,1024 -565.539,0 -1024,-458.462 -1024,-1024 0,-565.539 458.462,-1024 1024,-1024z"/>
  <path class="fil3" d="M1584 697.335l0 863.331c0,12.887 -10.448,23.3351 -23.3351,23.3351l-1073.33 0c-12.887,0 -23.3351,-10.448 -23.3351,-23.3351l0 -863.331 1120 0z"/>
  <polygon class="fil4" points="1584,697.335 1584,743.999 463.999,743.999 463.999,697.335 "/>
  <path class="fil5" d="M487.334 463.999l1073.33 0c12.887,0 23.3351,10.448 23.3351,23.3351l0 210 -1120 0 0 -210c0,-12.887 10.448,-23.3351 23.3351,-23.3351z"/>
  <path class="fil6" d="M1371.9 1327.33l0 -373.33 49.3725 0 0 373.33 -49.3725 0zm-306.92 -195.835l96.5705 0c31.8992,0 54.5859,-5.91024 67.9725,-17.8193 13.3854,-11.9079 20.0788,-28.5969 20.0788,-50.1532 0,-15.6461 -3.91181,-29.0327 -11.8217,-40.1587 -7.90985,-11.126 -18.254,-18.4276 -31.2047,-21.991 -8.34449,-2.17323 -23.6433,-3.30236 -46.0689,-3.30236l-95.5265 0 0 133.425zm-49.3725 195.835l0 -373.33 140.813 0c24.7725,0 43.7221,1.21772 56.7603,3.56457 18.3402,3.04134 33.7264,8.86536 46.1563,17.4709 12.3413,8.51812 22.3382,20.6008 29.9008,35.9859 7.5626,15.4713 11.2996,32.4213 11.2996,50.9363 0,31.7268 -10.0831,58.6725 -30.2481,80.6634 -20.2536,21.9047 -56.7615,32.9433 -109.523,32.9433l-95.7875 0 0 151.766 -49.3725 0zm-281.194 -153.33l126.646 0 -39.0272 -103.351c-11.8228,-31.3784 -20.6882,-57.1937 -26.426,-77.4473 -4.77992,23.9906 -11.4721,47.7201 -20.165,71.3634l-41.028 109.435zm-107.695 153.33l143.421 -373.33 53.1957 0 152.81 373.33 -56.3256 0 -43.5485 -113.085 -156.112 0 -40.9394 113.085 -52.5012 0z"/>
  <polygon class="fil7" points="1397.44,532.809 1397.44,626.141 1490.77,626.141 1490.77,532.809 "/>
  <polygon class="fil8" points="1070.55,626.141 1163.89,626.141 1163.89,532.809 1070.55,532.809 "/>
  <polygon class="fil9" points="1233.76,532.809 1233.76,626.141 1327.09,626.141 1327.09,532.809 "/>
 </g>
</svg>
