<?xml version="1.0" encoding="utf-8"?>
<!-- Generator: Adobe Illustrator 22.1.0, SVG Export Plug-In . SVG Version: 6.00 Build 0)  -->
<svg version="1.1" id="Layer_1" xmlns="http://www.w3.org/2000/svg" xmlns:xlink="http://www.w3.org/1999/xlink" x="0px" y="0px"
	 viewBox="0 0 256 256" style="enable-background:new 0 0 256 256;" xml:space="preserve">
<style type="text/css">
	.st0{fill:#D73735;}
	.st1{fill:#F85252;}
	.st2{fill:#EDAF85;}
	.st3{fill:#F7C09A;}
	.st4{fill:#D8D6D7;}
	.st5{fill:#FFFFFF;}
	.st6{fill:#1C868E;}
	.st7{fill:#40C4DF;}
	.st8{fill:#491352;}
	.st9{fill:#56C1B3;}
	.st10{fill:#7BEFE4;}
</style>
<g>
	<path class="st4" d="M245.322,34.331l-29.48,43.31c-0.54,0.81-1.31,1.43-2.21,1.8c-1.59,0.66-24.53,10.23-33.05,13.78
		c-1.87,0.78-4.03,0.35-5.46-1.08c-0.29-0.29-0.56-0.56-0.82-0.83c-0.33-0.32-0.63-0.63-0.93-0.92l-66.94,66.94l-7.97-7.97
		l66.94-66.94c-0.54-0.55-1.13-1.13-1.77-1.77c-1.43-1.43-1.86-3.59-1.08-5.46l13.76-33.02c0.39-0.92,1.03-1.7,1.86-2.25
		l43.84-28.99c1.99-1.31,4.62-1.05,6.3,0.63l10.6,10.6l5.81,5.82C246.422,29.681,246.672,32.341,245.322,34.331z"/>
	<path class="st5" d="M245.322,34.331l-29.48,43.31c-0.54,0.81-1.31,1.43-2.21,1.8c-1.59,0.66-24.53,10.23-33.05,13.78
		c-1.87,0.78-4.03,0.35-5.46-1.08c-0.29-0.29-0.56-0.56-0.82-0.83l15.56-37.34c0.44-1.07,1.2-1.98,2.17-2.62l45.79-30.28l1.09,1.09
		l5.81,5.82C246.422,29.681,246.672,32.341,245.322,34.331z"/>
	<path class="st0" d="M130.742,155.921l-10.94,10.94l-72.35,72.35c-8.52,8.52-22.35,8.52-30.87,0c-0.98-0.98-1.84-2.03-2.59-3.13
		c-5.83-8.5-4.96-20.2,2.59-27.75l83.28-83.28c2.43-2.42,6.36-2.42,8.78,0l22.1,22.1
		C133.162,149.571,133.162,153.501,130.742,155.921z"/>
	<path class="st1" d="M119.802,166.861l-72.35,72.35c-8.52,8.52-22.35,8.52-30.87,0c-0.98-0.98-1.84-2.03-2.59-3.13l83.12-83.13
		c2.43-2.42,6.35-2.42,8.78,0L119.802,166.861z"/>
	<path class="st6" d="M249.922,228.101c0,0.46-0.01,0.91-0.04,1.37c-0.32,5.11-2.44,10.15-6.36,14.06c-8.52,8.53-22.35,8.53-30.87,0
		L66.232,97.121c-15.09,4.68-31.98,1.4-44.52-9.78c-13.72-12.23-18.39-30.48-14.02-46.81c0.99-3.72,5.65-4.95,8.37-2.23l21.83,21.83
		c6.14,6.14,16.09,6.13,22.22,0c6.14-6.13,6.15-16.08,0-22.22l-21.83-21.84c-2.71-2.71-1.49-7.37,2.21-8.36
		c15.53-4.17,32.78-0.16,44.96,12.02c12.57,12.57,16.43,30.55,11.58,46.44l146.49,146.49
		C247.792,216.921,249.922,222.511,249.922,228.101z"/>
	<path class="st7" d="M249.922,228.101c0,0.46-0.01,0.91-0.04,1.37c-8.45,5.44-19.84,4.46-27.23-2.94L79.959,83.848
		c-2.227-2.227-5.419-3.126-8.509-2.52c-13.79,2.702-28.508-0.975-39.738-10.986c-9.62-8.58-14.8-20.13-15.51-31.9l21.69,21.69
		c6.14,6.14,16.09,6.13,22.22,0c6.14-6.13,6.15-16.08,0-22.22l-21.83-21.84c-2.71-2.71-1.49-7.37,2.21-8.36
		c15.53-4.17,32.78-0.16,44.96,12.02c12.57,12.57,16.43,30.55,11.58,46.44l146.49,146.49
		C247.792,216.921,249.922,222.511,249.922,228.101z"/>
	<g>
		<path class="st8" d="M244.933,211.247l-94.795-94.796l23.234-23.234c2.589,2.589,3.324,3.79,4.89,3.139
			c39.247-16.359,37.623-15.215,39.235-17.587l29.477-43.317c1.889-2.775,1.536-6.513-0.836-8.887c-0.001,0-0.001,0-0.001,0
			l-16.416-16.416c-2.343-2.342-6.048-2.715-8.812-0.888c-47.402,31.351-45.289,29.379-46.442,32.143
			c-16.207,38.886-15.951,36.961-14.618,38.292l2.724,2.724l-23.234,23.233L99.285,65.598C109.343,29.401,76.139-3.93,39.971,5.776
			c-5.184,1.391-6.915,7.901-3.106,11.71L58.7,39.32c5.347,5.347,5.347,14.046,0,19.394c-5.346,5.347-14.045,5.346-19.394,0
			L17.475,36.882c-3.81-3.811-10.326-2.074-11.718,3.13c-9.762,36.484,24.105,69.51,59.897,59.363L94.182,127.9l-79.016,79.017
			c-9.319,9.318-9.319,24.39,0,33.708c9.308,9.309,24.39,9.309,33.698,0l79.023-79.022l83.348,83.342
			c4.498,4.503,10.482,6.984,16.85,6.984C249.136,251.929,259.994,226.304,244.933,211.247z M178.158,42.942
			c0.509-1.221-2.357,0.947,44.958-30.347c1.185-0.783,2.772-0.622,3.776,0.381l16.416,16.416c1.017,1.018,1.167,2.62,0.358,3.81
			C211.834,79.98,214.051,77.105,212.865,77.6l-34.905,14.549l-14.335-14.334L178.158,42.942z M165.401,85.247l5.142,5.142
			l-23.234,23.234l-5.142-5.142L165.401,85.247z M46.035,237.797c-12.53,12.53-33.854,3.48-33.854-14.026
			c0-5.297,2.064-10.278,5.812-14.026l79.016-79.017l28.048,28.046L46.035,237.797z M228.084,247.929
			c-5.298,0-10.277-2.064-14.021-5.812C57.761,85.826,67.456,94.645,65.639,95.207C32.512,105.493,0.55,74.95,9.621,41.046
			c0.594-2.219,3.387-2.974,5.025-1.335l21.832,21.832c6.907,6.907,18.146,6.906,25.05,0c6.907-6.907,6.906-18.144,0-25.05
			L39.694,14.658c-1.613-1.614-0.926-4.417,1.315-5.019c33.581-9.015,64.341,22.406,54.107,55.969
			c-0.517,1.697-9.386-7.909,146.989,148.467C254.617,226.587,245.599,247.929,228.084,247.929z"/>
		<path class="st8" d="M218.259,218.273c-4.228,4.227-4.228,11.106,0,15.333c6.826,6.827,18.509,1.928,18.509-7.667
			C236.768,216.373,225.104,211.426,218.259,218.273z M230.764,230.778c-2.666,2.668-7.007,2.669-9.677,0
			c-4.302-4.302-1.229-11.677,4.838-11.677C231.999,219.101,235.063,226.479,230.764,230.778z"/>
	</g>
</g>
</svg>
