<?xml version="1.0" encoding="iso-8859-1"?>
<!-- Generator: Adobe Illustrator 19.0.0, SVG Export Plug-In . SVG Version: 6.00 Build 0)  -->
<svg version="1.1" id="Layer_1" xmlns="http://www.w3.org/2000/svg" xmlns:xlink="http://www.w3.org/1999/xlink" x="0px" y="0px"
	 viewBox="0 0 511.999 511.999" style="enable-background:new 0 0 511.999 511.999;" xml:space="preserve">
<polygon style="fill:#CCCCCC;" points="216.919,172.293 188.843,237.074 144.26,217.75 172.348,152.969 "/>
<g>
	<path style="fill:#F2F2F2;" d="M131.126,154.947l-27.918,60.4c-20.671-7.538-38.709-22.358-49.9-43.163
		c-13.473-25.065-25.587-52.728-29.811-77.114L131.126,154.947z"/>
	<path style="fill:#F2F2F2;" d="M477.829,440.668c7.125,7.125,10.682,16.447,10.682,25.781c0,9.334-3.569,18.669-10.682,25.794
		c-14.238,14.238-37.325,14.238-51.563,0l-5.984-5.984l-2.185-0.146c2.088-0.607,4.042-1.736,5.693-3.387l44.511-44.511
		c1.153-1.141,2.051-2.452,2.707-3.848l0.838,0.316L477.829,440.668z"/>
	<path style="fill:#F2F2F2;" d="M131.126,154.947l34.703-75.05L66.442,25.518c22.856-9.48,52.692-14.105,81.071-16.168
		c50.143-3.641,94.022,33.477,99.278,83.474l2.088,19.749c7.028,66.821,35.225,129.49,80.306,178.965l0.68,0.825
		c-1.627,0.655-3.144,1.651-4.455,2.962l-44.511,44.511c-1.153,1.153-2.051,2.464-2.695,3.86l-0.922-0.255
		c-37.398-35.261-83.074-60.594-132.889-73.618l-59.198-15.5l18.013-38.976L131.126,154.947z M188.843,237.074l28.076-64.781
		l-44.571-19.324L144.26,217.75L188.843,237.074z"/>
</g>
<path style="fill:#35D8B9;" d="M468.301,419.159c4.115,4.115,5.013,10.22,2.707,15.209c-0.655,1.396-1.554,2.707-2.707,3.848
	l-44.511,44.511c-1.651,1.651-3.605,2.78-5.693,3.387c-4.576,1.372-9.747,0.231-13.364-3.387L280.899,358.893
	c-4.115-4.115-5.013-10.22-2.695-15.197c0.643-1.396,1.542-2.707,2.695-3.86l44.511-44.511c1.311-1.311,2.828-2.306,4.455-2.962
	c4.867-1.979,10.645-0.995,14.602,2.962L468.301,419.159z"/>
<g>
	<path style="fill:#333333;" d="M484.265,434.234l-3.054-3.053c0.09-0.822,0.146-1.651,0.146-2.49c0-6.031-2.35-11.704-6.614-15.968
		l-123.838-123.84c-4.265-4.264-9.936-6.614-15.967-6.614c-0.585,0-1.164,0.041-1.742,0.085
		c-42.537-47.924-68.545-106.866-75.265-170.742l-2.085-19.746c-2.795-26.56-15.581-50.659-35.999-67.858
		C199.379,6.772,173.457-1.662,146.851,0.272C112.014,2.8,83.784,8.466,62.948,17.113c-3.236,1.342-5.414,4.422-5.602,7.92
		c-0.187,3.498,1.647,6.794,4.722,8.475l91.926,50.298l-27.007,58.417L27.923,87.113c-3.065-1.705-6.837-1.497-9.696,0.533
		c-2.86,2.031-4.299,5.523-3.7,8.979c3.844,22.159,14.193,49.031,30.762,79.875c10.266,19.087,26.289,34.278,45.709,43.564
		l-14.071,30.434c-1.131,2.446-1.12,5.268,0.029,7.705s3.32,4.24,5.928,4.922l59.208,15.502
		c46.79,12.238,90.216,35.916,125.856,68.578c-0.067,0.714-0.106,1.434-0.106,2.159c0,6.031,2.35,11.704,6.614,15.968
		l123.837,123.837c4.265,4.265,9.936,6.614,15.968,6.614c0.848,0,1.687-0.058,2.519-0.151l3.042,3.042
		c8.883,8.883,20.551,13.324,32.22,13.324s23.339-4.441,32.222-13.325c8.616-8.616,13.353-20.061,13.342-32.22
		C497.608,454.283,492.871,442.84,484.265,434.234z M391.414,355.143l17.07,17.07l-39.47,39.471c-3.555,3.555-3.555,9.32,0,12.874
		c1.778,1.778,4.109,2.667,6.438,2.667s4.66-0.888,6.438-2.667l39.47-39.47l17.07,17.071l-50.697,50.696l-47.015-47.015
		L391.414,355.143z M327.841,392.966l-17.071-17.07l50.697-50.697l17.07,17.07L327.841,392.966z M61.325,167.879
		c-10.901-20.295-18.923-38.603-23.97-54.684l81.969,45.599L98.64,203.533C82.789,195.899,69.712,183.473,61.325,167.879z
		 M98.018,248.265l76.072-164.543c2.009-4.347,0.308-9.508-3.894-11.807L89.076,27.532c16.325-4.382,36.106-7.431,59.095-9.1
		c21.838-1.582,43.133,5.342,59.947,19.505c16.802,14.152,27.322,33.982,29.621,55.84l2.085,19.746
		c6.967,66.228,33.506,127.452,76.876,177.632l-39.697,39.697c-37.197-33.146-82.064-57.224-130.301-69.839L98.018,248.265z
		 M286.051,349.363c0-0.676,0.168-1.979,1.283-3.094l44.511-44.511c1.114-1.114,2.415-1.281,3.093-1.281
		c0.677,0,1.979,0.166,3.093,1.282l10.565,10.564l-50.697,50.697l-10.564-10.564C286.218,351.342,286.051,350.04,286.051,349.363z
		 M400.606,465.73l50.697-50.696l10.564,10.564c1.114,1.114,1.282,2.417,1.282,3.093c0,0.676-0.167,1.979-1.283,3.094
		l-44.511,44.511c-1.114,1.114-2.415,1.281-3.093,1.281c-0.677,0-1.979-0.166-3.093-1.281l0,0L400.606,465.73z M471.391,485.801
		c-10.517,10.515-27.517,10.643-38.219,0.428l38.648-38.648c4.881,5.111,7.581,11.779,7.581,18.881
		C479.407,473.761,476.563,480.629,471.391,485.801z"/>
	<path style="fill:#333333;" d="M220.546,163.942l-44.58-19.326c-2.215-0.96-4.719-1.001-6.967-0.114
		c-2.246,0.887-4.046,2.63-5.006,4.846l-28.083,64.778c-1.999,4.613,0.119,9.974,4.73,11.973l44.58,19.326
		c1.154,0.5,2.388,0.751,3.621,0.751c1.135,0,2.27-0.212,3.346-0.637c2.246-0.887,4.046-2.63,5.006-4.846l28.083-64.779
		C227.277,171.302,225.158,165.942,220.546,163.942z M184.11,225.1l-27.874-12.085l20.841-48.073l27.874,12.085L184.11,225.1z"/>
</g>
<g>
</g>
<g>
</g>
<g>
</g>
<g>
</g>
<g>
</g>
<g>
</g>
<g>
</g>
<g>
</g>
<g>
</g>
<g>
</g>
<g>
</g>
<g>
</g>
<g>
</g>
<g>
</g>
<g>
</g>
</svg>
