<svg width="256" height="256" viewBox="0 0 256 256" fill="none" xmlns="http://www.w3.org/2000/svg">
<path d="M216.705 181.008L180.923 216.79C118.098 153.965 121.463 157.962 119.808 154.054C118.803 151.714 118.744 150.428 118.003 145.262C117.108 139.024 112.362 133.745 106.108 132.956C102.033 132.607 99.7983 127.232 103.037 123.994L123.91 103.121C127.16 99.8699 132.537 102.14 132.872 106.191C133.662 112.445 138.94 117.192 145.178 118.087C150.293 118.821 151.62 118.882 153.971 119.892C157.919 121.564 154.054 118.357 216.705 181.008Z" fill="#F0C020"/>
<path d="M179.499 206.818C178.712 206.03 178.712 204.755 179.499 203.968L180.484 202.982C181.272 202.196 182.546 202.196 183.334 202.982C184.121 203.769 184.121 205.045 183.334 205.831L182.349 206.817C181.562 207.603 180.287 207.603 179.499 206.818ZM186.184 200.133C185.396 199.346 185.396 198.071 186.184 197.285L202.46 181.008L151.829 130.377C150.135 128.684 148.708 128.771 143.749 128.059C134.931 126.794 127.479 121.023 124.302 112.996C123.893 111.963 124.4 110.792 125.434 110.382C126.469 109.971 127.639 110.479 128.049 111.514C130.695 118.199 136.931 123.011 144.322 124.07C149.057 124.751 151.877 124.729 154.678 127.527L206.735 179.584C207.521 180.369 207.521 181.648 206.735 182.433L189.033 200.134C188.246 200.92 186.969 200.92 186.184 200.133Z" fill="#F8E5B1"/>
<path d="M115.597 158.272L94.3612 179.508C104.081 202.717 85.1239 227.687 60.2874 224.752C57.8455 224.47 56.8462 221.439 58.587 219.699L75.8011 202.484C76.9616 201.316 76.9616 199.43 75.8011 198.27L58.039 180.507C56.8785 179.347 54.9926 179.347 53.8241 180.507L36.6099 197.721C34.8692 199.462 31.839 198.463 31.5569 196.021C30.4206 186.407 33.5555 176.381 40.9296 168.999C50.6246 159.304 64.8892 156.959 76.8005 161.947C89.479 149.269 96.7756 141.972 105.837 132.911C105.926 132.935 106.015 132.951 106.111 132.959C112.365 133.749 117.112 139.027 118.006 145.265C118.745 150.407 118.803 151.709 119.812 154.058L115.597 158.272Z" fill="#AFAFAF"/>
<path d="M215.295 87.3921C205.599 97.0872 191.335 99.4323 179.424 94.4438L158.188 115.679L153.973 119.894C151.622 118.885 150.31 118.826 145.181 118.089C138.943 117.195 133.664 112.448 132.875 106.194C132.866 106.097 132.85 106.009 132.826 105.92L161.863 76.8831C156.874 64.9718 159.22 50.7073 168.915 41.0122C176.297 33.6382 186.322 30.5032 195.937 31.6395C198.379 31.9216 199.378 34.9518 197.637 36.6926L180.423 53.9067C179.262 55.0753 179.262 56.9611 180.423 58.1216L198.185 75.8838C199.346 77.0443 201.231 77.0443 202.4 75.8838L219.614 58.6696C221.355 56.9289 224.385 57.9282 224.667 60.3701C225.804 69.9845 222.669 80.0108 215.295 87.3921Z" fill="#AFAFAF"/>
<path d="M119.811 154.058L115.596 158.272C115.233 157.62 114.903 156.951 114.613 156.258C113.295 153.189 113.169 151.252 112.421 146.063C111.865 142.178 108.939 139.035 105.466 138.56C104.659 138.488 102.995 138.124 101.477 137.27L105.837 132.911C105.925 132.935 106.014 132.951 106.111 132.959C112.364 133.749 117.111 139.027 118.006 145.265C118.744 150.406 118.802 151.708 119.811 154.058Z" fill="#7D7B79"/>
<path d="M158.188 115.679L153.973 119.894C151.622 118.885 150.31 118.826 145.181 118.089C138.943 117.195 133.664 112.448 132.875 106.194C132.866 106.097 132.85 106.009 132.826 105.92L137.186 101.56C138.02 103.077 138.405 104.743 138.476 105.549C138.951 109.023 142.094 111.948 145.979 112.504L150.806 113.197C152.651 113.455 154.465 113.963 156.197 114.712C156.882 115.003 157.543 115.325 158.188 115.679Z" fill="#7D7B79"/>
<path d="M73.75 215.071C73.2358 214.084 73.6186 212.868 74.6058 212.353C75.6874 211.79 76.731 211.134 77.7078 210.406C78.5991 209.738 79.8611 209.922 80.5276 210.815C81.1933 211.705 81.0104 212.969 80.1182 213.634C78.969 214.491 77.7408 215.263 76.4683 215.927C75.477 216.443 74.2625 216.055 73.75 215.071ZM83.333 207.901C82.4175 207.269 82.1878 206.013 82.8196 205.098C87.1111 198.882 88.1708 190.815 85.0649 183.398L82.976 178.41C82.6601 177.656 82.8317 176.786 83.4104 176.208L109.363 150.255C110.15 149.468 111.426 149.468 112.212 150.255C112.999 151.043 112.999 152.317 112.212 153.104L87.2158 178.101L88.7825 181.843C92.3712 190.413 91.2808 199.936 86.1359 207.387C85.5049 208.301 84.2501 208.533 83.333 207.901Z" fill="#EFEFEF"/>
<path d="M150.171 112.295C149.383 111.508 149.383 110.233 150.171 109.447L152.42 107.197C153.206 106.41 154.483 106.41 155.269 107.197C156.056 107.985 156.056 109.26 155.269 110.046L153.019 112.295C152.234 113.082 150.957 113.082 150.171 112.295ZM158.118 104.347C157.331 103.56 157.331 102.284 158.118 101.498L176.123 83.4924C177.29 82.3222 178.573 83.1579 180.17 83.8413C184.496 85.6893 187.354 86.911 192.116 86.911C200.611 86.911 208.334 82.2279 212.267 74.6911C212.782 73.703 213.998 73.3234 214.986 73.836C215.972 74.3518 216.354 75.5679 215.84 76.5543C211.209 85.4282 202.119 90.9405 192.116 90.9405C186.285 90.9405 182.724 89.3086 178.012 87.3019L160.967 104.347C160.182 105.134 158.905 105.134 158.118 104.347Z" fill="#EFEFEF"/>
<path d="M119.438 107.594L107.511 119.521L57.9421 69.9531L46.0147 63.9894C31.7994 44.1045 34.7337 48.2146 31.1055 43.1164L43.0329 31.189C48.1327 34.8188 44.0258 31.8861 63.9058 46.0983L69.8695 58.0257L119.438 107.594Z" fill="#EFEFEF"/>
<path d="M216.71 181.012L221.183 185.485C225.298 189.6 225.298 196.279 221.183 200.394L200.31 221.267C196.195 225.382 189.515 225.382 185.401 221.267L180.928 216.794L216.71 181.012Z" fill="#4C4944"/>
<path d="M93.0321 148.561C93.8138 147.779 93.8138 146.497 93.0321 145.716C92.2665 144.951 90.9367 144.951 90.1792 145.716C89.3974 146.498 89.3894 147.779 90.1792 148.561C90.9399 149.321 92.2052 149.369 93.0321 148.561Z" fill="black"/>
<path d="M157.316 119.395L179.911 96.801C192.696 101.587 207.008 98.5241 216.719 88.8121C224.298 81.2237 227.925 70.7695 226.668 60.1363C226.194 56.027 221.126 54.3048 218.189 57.2415L200.979 74.4508C200.6 74.8288 199.985 74.8304 199.609 74.4557L181.847 56.6943C181.472 56.3188 181.474 55.7039 181.847 55.3283L199.061 38.1141C202.009 35.1669 200.257 30.1067 196.173 29.636C185.533 28.3756 175.078 32.003 167.489 39.5841C157.779 49.2945 154.714 63.6066 159.501 76.3907L133.442 102.45C130.796 98.9568 125.642 98.5216 122.486 101.697L119.439 104.743L79.4988 64.8106C78.7412 64.045 77.4115 64.053 76.6539 64.8106C75.8762 65.5875 75.8633 66.8648 76.6539 67.6546L116.587 107.596C116.093 108.089 107.864 116.31 107.504 116.671C107.129 116.296 59.3141 68.3912 58.8434 68.147L47.3592 62.409C33.7523 43.3719 36.0782 46.6293 33.7322 43.3332L43.2499 33.8154L62.3257 47.4425L66.049 54.8891C66.5326 55.8562 67.7736 56.2752 68.7488 55.7917C69.7481 55.292 70.1511 54.0832 69.6514 53.0919C65.6082 44.9885 65.7395 44.9297 65.0739 44.4607C45.1857 30.2437 49.2999 33.1836 44.2009 29.5441C43.4192 28.9889 42.2828 29.0856 41.6059 29.7625L29.6785 41.6899C28.9854 42.3911 28.8887 43.4791 29.4609 44.285L44.3782 65.166C44.8368 65.8236 44.7263 65.6028 56.7489 71.6052L104.664 119.52L101.614 122.571C98.4787 125.669 98.822 130.847 102.368 133.525L95.8756 140.018C95.0939 140.8 95.0939 142.082 95.8756 142.863C96.6589 143.645 97.9178 143.672 98.7285 142.863L106.521 135.07C111.314 135.982 115.252 140.277 116.007 145.546C116.749 150.716 116.794 151.579 117.464 153.551L92.934 178.081C92.3618 178.653 92.1845 179.539 92.4988 180.28C101.614 202.026 83.8176 225.553 60.5124 222.743C59.7581 222.663 59.4527 221.676 60.0047 221.123L77.2189 203.909C79.178 201.933 79.153 198.759 77.2189 196.841L59.4567 179.079C57.5322 177.154 54.3859 177.116 52.397 179.07L35.1828 196.293C34.5945 196.857 33.6314 196.514 33.5549 195.785C32.4701 186.752 35.4093 177.372 42.3473 170.416C51.5274 161.248 64.8764 159.152 76.0181 163.798C76.7676 164.114 77.646 163.944 78.2182 163.372L87.3249 154.256C88.1147 153.475 88.1147 152.201 87.3249 151.412C86.5674 150.647 85.2376 150.647 84.4801 151.412L76.3082 159.584C63.7594 154.902 49.312 157.737 39.5025 167.571C31.6908 175.383 28.3334 186.048 29.5495 196.253C30.0476 200.418 35.1449 202.03 38.0277 199.146L55.2418 181.924C55.6206 181.562 56.2218 181.552 56.6118 181.924L74.374 199.686C74.7673 200.097 74.731 200.7 74.366 201.064L57.1599 218.271C54.2828 221.098 55.8438 226.252 60.0531 226.749C85.8316 229.803 105.844 204.411 96.7137 179.999L119.309 157.396C120.791 159.737 118.979 157.69 152.595 191.306C153.353 192.07 154.683 192.07 155.448 191.314C156.23 190.524 156.23 189.25 155.448 188.461C121.682 154.703 123.061 156.586 121.665 153.267C120.759 151.148 120.73 150.09 119.996 144.974C119.604 142.24 118.579 139.727 117.09 137.601L137.517 117.174C139.644 118.662 142.156 119.686 144.89 120.079C150.038 120.818 151.124 120.857 153.175 121.74C156.615 123.221 152.262 119.408 213.859 181.006L180.922 213.944L166.843 199.856C166.077 199.1 164.756 199.1 163.99 199.856C163.208 200.646 163.208 201.92 163.99 202.709C173.966 212.685 183.544 222.26 183.976 222.691C188.874 227.588 196.838 227.587 201.734 222.691L222.607 201.818C227.512 196.913 227.513 188.966 222.607 184.061C154.268 115.71 159.684 120.896 157.316 119.395ZM114.39 134.604C111.683 132.259 109.2 131.458 106.182 130.928C103.636 130.481 102.571 127.308 104.458 125.424L125.331 104.551C127.278 102.627 130.409 103.764 130.835 106.267C131.374 109.226 132.088 111.672 134.518 114.475L114.39 134.604ZM145.463 116.091C140.194 115.341 135.898 111.398 134.982 106.608L163.286 78.3039C163.865 77.7252 164.036 76.8549 163.721 76.1013C158.87 64.5197 161.467 51.3044 170.337 42.4346C177.048 35.7319 186.293 32.5268 195.705 33.6381C196.467 33.7268 196.769 34.7076 196.212 35.2653L178.992 52.4843C177.055 54.4362 177.056 57.6034 178.997 59.544L196.759 77.3054C198.7 79.2476 201.868 79.2508 203.824 77.3054L221.038 60.092C221.591 59.5392 222.576 59.8285 222.666 60.6054C223.778 70.0119 220.571 79.2565 213.869 85.9656C204.998 94.837 191.783 97.4337 180.202 92.5837C179.447 92.2662 178.576 92.4387 177.999 93.0173L153.469 117.547C151.498 116.878 150.647 116.835 145.463 116.091ZM219.758 198.969L198.885 219.842C195.56 223.166 190.15 223.166 186.825 219.842L183.777 216.794L216.709 183.861L219.757 186.909C223.089 190.24 223.089 195.638 219.758 198.969Z" fill="black"/>
<path d="M73.8028 61.9585C74.5805 61.1792 74.6095 59.9034 73.8028 59.1136C73.0452 58.348 71.7155 58.348 70.9579 59.1136C70.1689 59.8857 70.156 61.1719 70.9579 61.9585C71.7501 62.7499 73.0267 62.733 73.8028 61.9585Z" fill="black"/>
<path d="M140.657 151.178C139.87 151.965 139.87 153.24 140.657 154.027L178.571 191.941C179.357 192.728 180.634 192.728 181.42 191.941C182.207 191.153 182.207 189.878 181.42 189.092L143.506 151.178C142.719 150.391 141.443 150.391 140.657 151.178Z" fill="black"/>
<path d="M191.855 181.504C192.643 180.717 192.643 179.442 191.855 178.655L153.941 140.741C153.155 139.954 151.878 139.954 151.092 140.741C150.305 141.529 150.305 142.804 151.092 143.59L189.006 181.504C189.793 182.291 191.069 182.291 191.855 181.504Z" fill="black"/>
<path d="M158.292 194.159C157.508 194.942 157.506 196.226 158.292 197.012C159.077 197.797 160.359 197.797 161.144 197.012C161.931 196.224 161.929 194.943 161.144 194.159C160.378 193.401 159.057 193.401 158.292 194.159Z" fill="black"/>
</svg>
