<?xml version="1.0" encoding="iso-8859-1"?>
<!-- Generator: Adobe Illustrator 21.0.2, SVG Export Plug-In . SVG Version: 6.00 Build 0)  -->
<svg version="1.1" xmlns="http://www.w3.org/2000/svg" xmlns:xlink="http://www.w3.org/1999/xlink" x="0px" y="0px"
	 viewBox="0 0 64 64" style="enable-background:new 0 0 64 64;" xml:space="preserve">
<g id="css">
</g>
<g id="mobile_development">
</g>
<g id="code">
</g>
<g id="hardware_programming">
	<g>
		<path d="M43.8931,18.2744H20.1069c-1.0098,0-1.8315,0.8223-1.8315,1.832v23.7871c0,1.0098,0.8218,1.832,1.8315,1.832h23.7861
			c1.0098,0,1.8315-0.8223,1.8315-1.832V20.1064C45.7246,19.0967,44.9028,18.2744,43.8931,18.2744z M43.7246,43.7256H20.2754
			V20.2744h23.4492V43.7256z"/>
		<path d="M27.4448,35.3145c0.1851,0.1504,0.4072,0.2227,0.6279,0.2227c0.2915,0,0.5806-0.127,0.7783-0.3711
			c0.3472-0.4297,0.2803-1.0596-0.1494-1.4063l-2.1782-1.7607l2.1777-1.7578c0.4297-0.3467,0.4971-0.9766,0.1504-1.4063
			c-0.3477-0.4307-0.9766-0.498-1.4063-0.1504l-3.1416,2.5352c-0.2354,0.1895-0.3721,0.4756-0.3721,0.7783
			c0,0.3018,0.1362,0.5879,0.3716,0.7773L27.4448,35.3145z"/>
		<path d="M30.7593,35.4795c0.1108,0.0391,0.2241,0.0576,0.3354,0.0576c0.4111,0,0.7964-0.2549,0.9419-0.6641l1.8071-5.0742
			c0.1855-0.5205-0.0859-1.0928-0.6064-1.2783c-0.5215-0.1846-1.0928,0.0859-1.2773,0.6064l-1.8071,5.0742
			C29.9673,34.7217,30.2388,35.2939,30.7593,35.4795z"/>
		<path d="M35.1318,35.166c0.1978,0.2441,0.4868,0.3711,0.7783,0.3711c0.2207,0,0.4429-0.0723,0.6279-0.2227l3.1416-2.5391
			c0.2354-0.1895,0.3716-0.4756,0.3716-0.7773c0-0.3027-0.1367-0.5889-0.3721-0.7783l-3.1416-2.5352
			c-0.4292-0.3457-1.0586-0.2803-1.4063,0.1504c-0.3467,0.4297-0.2793,1.0596,0.1504,1.4063l2.1777,1.7578l-2.1782,1.7607
			C34.8516,34.1064,34.7847,34.7363,35.1318,35.166z"/>
		<path d="M59.71,48.0781c-1.4614,0-2.6884,0.9662-3.1142,2.2891h-1.796V45.707c0-0.5527-0.4478-1-1-1h-3.356v-2.9854h4.571
			c0.4262,1.3228,1.6544,2.2891,3.1174,2.2891c1.8115,0,3.2856-1.4756,3.2856-3.2891c0-1.8115-1.4741-3.2861-3.2856-3.2861
			c-1.4626,0-2.6907,0.9651-3.1171,2.2861h-4.5714V32.998h4.5709c0.426,1.3235,1.6544,2.29,3.1176,2.29
			c1.8115,0,3.2856-1.4756,3.2856-3.29c0-1.8115-1.4741-3.2861-3.2856-3.2861c-1.4626,0-2.6907,0.9651-3.1171,2.2861h-4.5714
			v-6.7227h4.571c0.4262,1.3228,1.6544,2.2891,3.1174,2.2891c1.8115,0,3.2856-1.4756,3.2856-3.2891
			c0-1.8115-1.4741-3.2861-3.2856-3.2861c-1.4626,0-2.6907,0.9651-3.1171,2.2861h-4.5714v-2.9863h3.356c0.5522,0,1-0.4473,1-1
			v-4.6602h1.7958c0.4257,1.3235,1.6527,2.29,3.1143,2.29c1.8135,0,3.2891-1.4756,3.2891-3.29c0-1.8115-1.4756-3.2861-3.2891-3.2861
			c-1.4611,0-2.6879,0.9651-3.1139,2.2861h-2.7963c-0.5522,0-1,0.4473-1,1v4.6602h-2.6863
			c-0.5656-1.5857-1.8214-2.8417-3.4064-3.4068v-2.683h4.6602c0.5522,0,1-0.4473,1-1V7.4028
			c1.3209-0.4265,2.2856-1.6544,2.2856-3.1166C54.6528,2.4746,53.1787,1,51.3672,1c-1.814,0-3.2896,1.4746-3.2896,3.2861
			c0,1.4627,0.9664,2.6909,2.2896,3.117v1.7961H45.707c-0.5522,0-1,0.4473-1,1v3.3535h-2.9858V8.9813
			c1.3228-0.4258,2.2891-1.6531,2.2891-3.1141c0-1.8145-1.4756-3.29-3.2891-3.29c-1.812,0-3.2861,1.4756-3.2861,3.29
			c0,1.4607,0.965,2.6877,2.2861,3.1139v4.5717H32.998V8.9814c1.3232-0.4258,2.2896-1.6531,2.2896-3.1142
			c0-1.8145-1.4756-3.29-3.2896-3.29c-1.8115,0-3.2856,1.4756-3.2856,3.29c0,1.4606,0.9648,2.6876,2.2856,3.1138v4.5717h-6.7227
			V8.9814c1.3232-0.4258,2.2896-1.6531,2.2896-3.1142c0-1.8145-1.4756-3.29-3.2896-3.29c-1.8115,0-3.2856,1.4756-3.2856,3.29
			c0,1.4606,0.9648,2.6876,2.2856,3.1138v4.5717h-2.9858v-3.3535c0-0.5527-0.4478-1-1-1h-4.6602V7.4031
			c1.3232-0.4261,2.2896-1.6543,2.2896-3.117C15.9189,2.4746,14.4434,1,12.6294,1c-1.8115,0-3.2856,1.4746-3.2856,3.2861
			c0,1.4622,0.9648,2.6901,2.2856,3.1166v2.7965c0,0.5527,0.4478,1,1,1h4.6602v2.6839c-1.585,0.5655-2.8407,1.821-3.4063,3.4059
			h-2.6831v-4.6602c0-0.5527-0.4478-1-1-1H7.4037c-0.4265-1.321-1.6545-2.2861-3.1171-2.2861c-1.8115,0-3.2856,1.4746-3.2856,3.2861
			c0,1.8145,1.4741,3.29,3.2856,3.29c1.4631,0,2.6915-0.9665,3.1176-2.29h1.796v4.6602c0,0.5527,0.4478,1,1,1h3.3525v2.9863H8.9816
			c-0.426-1.321-1.6528-2.2861-3.1139-2.2861c-1.814,0-3.2896,1.4746-3.2896,3.2861c0,1.8135,1.4756,3.2891,3.2896,3.2891
			c1.4614,0,2.6884-0.9662,3.1142-2.2891h4.5709v6.7227H8.9816c-0.426-1.321-1.6528-2.2861-3.1139-2.2861
			c-1.814,0-3.2896,1.4746-3.2896,3.2861c0,1.8145,1.4756,3.29,3.2896,3.29c1.4616,0,2.6887-0.9665,3.1143-2.29h4.5707v6.7236
			H8.9816c-0.426-1.321-1.6528-2.2861-3.1139-2.2861c-1.814,0-3.2896,1.4746-3.2896,3.2861c0,1.8135,1.4756,3.2891,3.2896,3.2891
			c1.4614,0,2.6884-0.9662,3.1142-2.2891h4.5709v2.9854h-3.3525c-0.5522,0-1,0.4473-1,1v4.6602H7.4041
			c-0.4262-1.3228-1.6544-2.2891-3.1174-2.2891c-1.8115,0-3.2856,1.4756-3.2856,3.2891c0,1.8115,1.4741,3.2861,3.2856,3.2861
			c1.4626,0,2.6907-0.9651,3.1171-2.2861h2.7964c0.5522,0,1-0.4473,1-1V46.707h2.6821c0.5651,1.5854,1.8214,2.8415,3.4073,3.407
			v2.6867h-4.6602c-0.5522,0-1,0.4473-1,1v2.7963c-1.3208,0.4262-2.2856,1.6532-2.2856,3.1138c0,1.8135,1.4741,3.2891,3.2856,3.2891
			c1.814,0,3.2896-1.4756,3.2896-3.2891c0-1.4611-0.9664-2.6884-2.2896-3.1142v-1.796h4.6602c0.5522,0,1-0.4473,1-1v-3.3564h2.9858
			v4.5719c-1.3208,0.4265-2.2856,1.6544-2.2856,3.1166c0,1.8115,1.4741,3.2861,3.2856,3.2861c1.814,0,3.2896-1.4746,3.2896-3.2861
			c0-1.4627-0.9664-2.6909-2.2896-3.117v-4.5715h6.7227v4.5719c-1.3208,0.4265-2.2856,1.6544-2.2856,3.1166
			c0,1.8115,1.4741,3.2861,3.2856,3.2861c1.814,0,3.2896-1.4746,3.2896-3.2861c0-1.4627-0.9664-2.6909-2.2896-3.117v-4.5715h6.7231
			v4.5718c-1.3212,0.4264-2.2861,1.6544-2.2861,3.1167c0,1.8115,1.4741,3.2861,3.2861,3.2861c1.8135,0,3.2891-1.4746,3.2891-3.2861
			c0-1.4626-0.9662-2.6907-2.2891-3.1169v-4.5715h2.9858v3.3564c0,0.5527,0.4478,1,1,1h4.6602v1.796
			c-1.3232,0.4258-2.2896,1.6531-2.2896,3.1142c0,1.8135,1.4756,3.2891,3.2896,3.2891c1.8115,0,3.2856-1.4756,3.2856-3.2891
			c0-1.4606-0.9648-2.6876-2.2856-3.1138v-2.7963c0-0.5527-0.4478-1-1-1H46.707v-2.6859c1.586-0.5652,2.8423-1.8218,3.4075-3.4079
			h2.6853v4.6602c0,0.5527,0.4478,1,1,1h2.7963c0.426,1.321,1.6528,2.2861,3.1139,2.2861c1.8135,0,3.2891-1.4746,3.2891-3.2861
			C62.999,49.5537,61.5234,48.0781,59.71,48.0781z M58.1323,39.4355c0.709,0,1.2856,0.5771,1.2856,1.2861
			c0,0.7109-0.5767,1.2891-1.2856,1.2891c-0.7109,0-1.2896-0.5781-1.2896-1.2891C56.8428,40.0127,57.4214,39.4355,58.1323,39.4355z
			 M58.1323,30.7119c0.709,0,1.2856,0.5771,1.2856,1.2861c0,0.7109-0.5767,1.29-1.2856,1.29c-0.7109,0-1.2896-0.5791-1.2896-1.29
			C56.8428,31.2891,57.4214,30.7119,58.1323,30.7119z M58.1323,21.9893c0.709,0,1.2856,0.5771,1.2856,1.2861
			c0,0.7109-0.5767,1.2891-1.2856,1.2891c-0.7109,0-1.2896-0.5781-1.2896-1.2891C56.8428,22.5664,57.4214,21.9893,58.1323,21.9893z
			 M59.71,11.3428c0.7109,0,1.2891,0.5771,1.2891,1.2861c0,0.7109-0.5781,1.29-1.2891,1.29c-0.709,0-1.2861-0.5791-1.2861-1.29
			C58.4238,11.9199,59.001,11.3428,59.71,11.3428z M51.3672,3c0.709,0,1.2856,0.5771,1.2856,1.2861
			c0,0.7109-0.5767,1.2891-1.2856,1.2891c-0.7109,0-1.2896-0.5781-1.2896-1.2891C50.0776,3.5771,50.6563,3,51.3672,3z
			 M40.7212,4.5771c0.7109,0,1.2891,0.5791,1.2891,1.29c0,0.709-0.5781,1.2861-1.2891,1.2861c-0.709,0-1.2861-0.5771-1.2861-1.2861
			C39.4351,5.1563,40.0122,4.5771,40.7212,4.5771z M31.998,4.5771c0.7109,0,1.2896,0.5791,1.2896,1.29
			c0,0.709-0.5786,1.2861-1.2896,1.2861c-0.709,0-1.2856-0.5771-1.2856-1.2861C30.7124,5.1563,31.2891,4.5771,31.998,4.5771z
			 M23.2754,4.5771c0.7109,0,1.2896,0.5791,1.2896,1.29c0,0.709-0.5786,1.2861-1.2896,1.2861c-0.709,0-1.2856-0.5771-1.2856-1.2861
			C21.9897,5.1563,22.5664,4.5771,23.2754,4.5771z M12.6294,3c0.7109,0,1.2896,0.5771,1.2896,1.2861
			c0,0.7109-0.5786,1.2891-1.2896,1.2891c-0.709,0-1.2856-0.5781-1.2856-1.2891C11.3438,3.5771,11.9204,3,12.6294,3z
			 M4.2866,13.9189c-0.709,0-1.2856-0.5791-1.2856-1.29c0-0.709,0.5767-1.2861,1.2856-1.2861c0.7109,0,1.2896,0.5771,1.2896,1.2861
			C5.5762,13.3398,4.9976,13.9189,4.2866,13.9189z M5.8677,24.5645c-0.7109,0-1.2896-0.5781-1.2896-1.2891
			c0-0.709,0.5786-1.2861,1.2896-1.2861c0.709,0,1.2861,0.5771,1.2861,1.2861C7.1538,23.9863,6.5767,24.5645,5.8677,24.5645z
			 M5.8677,33.2881c-0.7109,0-1.2896-0.5791-1.2896-1.29c0-0.709,0.5786-1.2861,1.2896-1.2861c0.709,0,1.2861,0.5771,1.2861,1.2861
			C7.1538,32.709,6.5767,33.2881,5.8677,33.2881z M5.8677,42.0107c-0.7109,0-1.2896-0.5781-1.2896-1.2891
			c0-0.709,0.5786-1.2861,1.2896-1.2861c0.709,0,1.2861,0.5771,1.2861,1.2861C7.1538,41.4326,6.5767,42.0107,5.8677,42.0107z
			 M4.2866,52.6533c-0.709,0-1.2856-0.5771-1.2856-1.2861c0-0.7109,0.5767-1.2891,1.2856-1.2891
			c0.7109,0,1.2896,0.5781,1.2896,1.2891C5.5762,52.0762,4.9976,52.6533,4.2866,52.6533z M12.6294,61
			c-0.709,0-1.2856-0.5781-1.2856-1.2891c0-0.709,0.5767-1.2861,1.2856-1.2861c0.7109,0,1.2896,0.5771,1.2896,1.2861
			C13.9189,60.4219,13.3403,61,12.6294,61z M23.2754,59.4189c-0.709,0-1.2856-0.5771-1.2856-1.2861
			c0-0.7109,0.5767-1.2891,1.2856-1.2891c0.7109,0,1.2896,0.5781,1.2896,1.2891C24.5649,58.8418,23.9863,59.4189,23.2754,59.4189z
			 M31.998,59.4189c-0.709,0-1.2856-0.5771-1.2856-1.2861c0-0.7109,0.5767-1.2891,1.2856-1.2891
			c0.7109,0,1.2896,0.5781,1.2896,1.2891C33.2876,58.8418,32.709,59.4189,31.998,59.4189z M40.7212,59.4189
			c-0.709,0-1.2861-0.5771-1.2861-1.2861c0-0.7109,0.5771-1.2891,1.2861-1.2891c0.7109,0,1.2891,0.5781,1.2891,1.2891
			C42.0103,58.8418,41.4321,59.4189,40.7212,59.4189z M51.3672,61c-0.7109,0-1.2896-0.5781-1.2896-1.2891
			c0-0.709,0.5786-1.2861,1.2896-1.2861c0.709,0,1.2856,0.5771,1.2856,1.2861C52.6528,60.4219,52.0762,61,51.3672,61z
			 M44.8311,48.4443H19.1689c-1.9941,0-3.6162-1.6211-3.6162-3.6133V19.1689c0-1.9941,1.6221-3.6162,3.6162-3.6162h25.6621
			c1.9922,0,3.6128,1.6221,3.6128,3.6162v25.6621C48.4438,46.8232,46.8232,48.4443,44.8311,48.4443z M59.71,52.6533
			c-0.709,0-1.2861-0.5771-1.2861-1.2861c0-0.7109,0.5771-1.2891,1.2861-1.2891c0.7109,0,1.2891,0.5781,1.2891,1.2891
			C60.999,52.0762,60.4209,52.6533,59.71,52.6533z"/>
	</g>
</g>
<g id="python">
</g>
<g id="development">
</g>
<g id="update">
</g>
<g id="maintenance">
</g>
<g id="peformance_testing">
</g>
<g id="programming">
</g>
<g id="hacker">
</g>
<g id="web_programming">
</g>
<g id="html">
</g>
<g id="typing">
</g>
<g id="search_1_">
</g>
<g id="android">
</g>
<g id="coding">
</g>
<g id="file">
</g>
<g id="api">
</g>
<g id="java">
</g>
<g id="xml">
</g>
<g id="security">
</g>
<g id="algorithm">
</g>
<g id="php">
</g>
<g id="eror">
</g>
<g id="bug">
</g>
<g id="c_x2B__x2B_">
</g>
<g id="search">
</g>
<g id="binary">
</g>
<g id="database_sql">
</g>
</svg>
