<?xml version="1.0" encoding="utf-8"?>
<!-- Generator: Adobe Illustrator 22.1.0, SVG Export Plug-In . SVG Version: 6.00 Build 0)  -->
<svg version="1.1" id="Layer_1" xmlns="http://www.w3.org/2000/svg" xmlns:xlink="http://www.w3.org/1999/xlink" x="0px" y="0px"
	 viewBox="0 0 256 256" style="enable-background:new 0 0 256 256;" xml:space="preserve">
<style type="text/css">
	.st0{fill:#D73735;}
	.st1{fill:#F85252;}
	.st2{fill:#EDAF85;}
	.st3{fill:#F7C09A;}
	.st4{fill:#D8D6D7;}
	.st5{fill:#FFFFFF;}
	.st6{fill:#1C868E;}
	.st7{fill:#40C4DF;}
	.st8{fill:#491352;}
	.st9{fill:#56C1B3;}
	.st10{fill:#7BEFE4;}
</style>
<g>
	<path id="XMLID_1182_" class="st5" d="M195,56.083H61c-2.761,0-5,2.239-5,5v134c0,2.761,2.239,5,5,5h134c2.761,0,5-2.239,5-5v-134
		C200,58.322,197.761,56.083,195,56.083z"/>
	<path class="st6" d="M185.33,75.753v104.66c0,2.76-2.24,5-5,5H75.67c-2.76,0-5-2.24-5-5V75.753c0-2.76,2.24-5,5-5h104.66
		C183.09,70.753,185.33,72.993,185.33,75.753z"/>
	<circle id="XMLID_601_" class="st1" cx="128" cy="13.583" r="8"/>
	<circle id="XMLID_600_" class="st1" cx="92.667" cy="242.417" r="8"/>
	<circle id="XMLID_599_" class="st1" cx="29.5" cy="163.417" r="8"/>
	<circle id="XMLID_598_" class="st1" cx="226" cy="92.75" r="8"/>
	<path class="st7" d="M185.33,75.753v104.66c0,2.76-2.24,5-5,5H96.67c-2.76,0-5-2.24-5-5V75.753c0-2.76,2.24-5,5-5h83.66
		C183.09,70.753,185.33,72.993,185.33,75.753z"/>
	<g>
		<path class="st8" d="M248,126.083h-46V94.75h14.202c0.929,4.559,4.969,8,9.798,8c5.514,0,10-4.486,10-10s-4.486-10-10-10
			c-4.829,0-8.869,3.441-9.798,8H202V61.083c0-3.86-3.14-7-7-7h-29.667v-22c0-1.104-0.896-2-2-2s-2,0.896-2,2v22H130V23.382
			c4.559-0.929,8-4.969,8-9.798c0-5.514-4.486-10-10-10s-10,4.486-10,10c0,4.829,3.441,8.869,8,9.798v30.702H94.667v-32.5
			c0-2.642-4-2.646-4,0v32.5H61c-3.86,0-7,3.14-7,7V90.75H19c-2.642,0-2.646,4,0,4h35v31.333H8c-2.642,0-2.646,4,0,4h46v31.333
			H39.298c-0.929-4.559-4.969-8-9.798-8c-5.514,0-10,4.486-10,10s4.486,10,10,10c4.829,0,8.869-3.441,9.798-8H54v29.667
			c0,3.86,3.14,7,7,7h29.667v30.535c-4.559,0.929-8,4.969-8,9.798c0,5.514,4.486,10,10,10s10-4.486,10-10
			c0-4.829-3.441-8.869-8-9.798v-30.535H126v22c0,1.104,0.896,2,2,2s2-0.896,2-2v-22h31.333v46c0,2.642,4,2.646,4,0v-46H195
			c3.86,0,7-3.14,7-7v-29.667h28c2.642,0,2.646-4,0-4h-28v-31.333h46C250.642,130.083,250.646,126.083,248,126.083z M226,86.75
			c3.309,0,6,2.691,6,6s-2.691,6-6,6s-6-2.691-6-6S222.691,86.75,226,86.75z M29.5,169.417c-3.309,0-6-2.691-6-6s2.691-6,6-6
			s6,2.691,6,6S32.809,169.417,29.5,169.417z M122,13.583c0-3.309,2.691-6,6-6s6,2.691,6,6s-2.691,6-6,6S122,16.892,122,13.583z
			 M98.667,242.417c0,3.309-2.691,6-6,6s-6-2.691-6-6s2.691-6,6-6S98.667,239.108,98.667,242.417z M198,195.083c0,1.654-1.346,3-3,3
			H61c-1.654,0-3-1.346-3-3v-134c0-1.654,1.346-3,3-3h134c1.654,0,3,1.346,3,3V195.083z"/>
		<path class="st8" d="M180.333,68.75H75.667c-3.86,0-7,3.14-7,7v104.667c0,3.86,3.14,7,7,7h104.667c3.86,0,7-3.14,7-7V75.75
			C187.333,71.89,184.193,68.75,180.333,68.75z M183.333,180.417c0,1.654-1.346,3-3,3H75.667c-1.654,0-3-1.346-3-3V75.75
			c0-1.654,1.346-3,3-3h104.667c1.654,0,3,1.346,3,3V180.417z"/>
	</g>
</g>
</svg>
