<svg xmlns="http://www.w3.org/2000/svg" viewBox="0 0 48 48"><title>03-binary code</title><g id="_03-binary_code" data-name="03-binary code"><path d="M45,40H3a3,3,0,0,1-3-3V11A3,3,0,0,1,3,8H6v2H3a1,1,0,0,0-1,1V37a1,1,0,0,0,1,1H45a1,1,0,0,0,1-1V11a1,1,0,0,0-1-1H42V8h3a3,3,0,0,1,3,3V37A3,3,0,0,1,45,40Z"/><rect x="15" y="39" width="2" height="4"/><path d="M13,47H11V45a3,3,0,0,1,3-3H24v2H14a1,1,0,0,0-1,1Z"/><rect x="31" y="39" width="2" height="4"/><path d="M37,47H35V45a1,1,0,0,0-1-1H29V42h5a3,3,0,0,1,3,3Z"/><rect x="9" y="46" width="30" height="2"/><path d="M40,36H8a3,3,0,0,1-3-3V3A3,3,0,0,1,8,0H40a3,3,0,0,1,3,3V33A3,3,0,0,1,40,36ZM8,2A1,1,0,0,0,7,3V33a1,1,0,0,0,1,1H40a1,1,0,0,0,1-1V3a1,1,0,0,0-1-1Z"/><rect x="6" y="6" width="36" height="2"/><rect x="9" y="3" width="2" height="2"/><rect x="13" y="3" width="2" height="2"/><rect x="17" y="3" width="2" height="2"/><rect x="1" y="30" width="5" height="2"/><rect x="42" y="30" width="5" height="2"/><path d="M22,16H20V12H19V10h2a1,1,0,0,1,1,1Z"/><path d="M29,16H27V12H26V10h2a1,1,0,0,1,1,1Z"/><path d="M14,32H12V28H11V26h2a1,1,0,0,1,1,1Z"/><path d="M22,32H20V28H19V26h2a1,1,0,0,1,1,1Z"/><path d="M15,16H11a1,1,0,0,1-1-1V11a1,1,0,0,1,1-1h4a1,1,0,0,1,1,1v4A1,1,0,0,1,15,16Zm-3-2h2V12H12Z"/><path d="M38,32H36V28H35V26h2a1,1,0,0,1,1,1Z"/><path d="M31,32H27a1,1,0,0,1-1-1V27a1,1,0,0,1,1-1h4a1,1,0,0,1,1,1v4A1,1,0,0,1,31,32Zm-3-2h2V28H28Z"/><path d="M38,24H36V20H35V18h2a1,1,0,0,1,1,1Z"/><path d="M31,24H27a1,1,0,0,1-1-1V19a1,1,0,0,1,1-1h4a1,1,0,0,1,1,1v4A1,1,0,0,1,31,24Zm-3-2h2V20H28Z"/><path d="M37,16H33a1,1,0,0,1-1-1V11a1,1,0,0,1,1-1h4a1,1,0,0,1,1,1v4A1,1,0,0,1,37,16Zm-3-2h2V12H34Z"/><path d="M14,24H12V20H11V18h2a1,1,0,0,1,1,1Z"/><path d="M22,24H18a1,1,0,0,1-1-1V19a1,1,0,0,1,1-1h4a1,1,0,0,1,1,1v4A1,1,0,0,1,22,24Zm-3-2h2V20H19Z"/></g></svg>