<?xml version="1.0" encoding="iso-8859-1"?>
<!-- Generator: Adobe Illustrator 19.0.0, SVG Export Plug-In . SVG Version: 6.00 Build 0)  -->
<svg xmlns="http://www.w3.org/2000/svg" xmlns:xlink="http://www.w3.org/1999/xlink" version="1.1" id="Layer_1" x="0px" y="0px" viewBox="0 0 512 512" style="enable-background:new 0 0 512 512;" xml:space="preserve">
<path style="fill:#00C3FF;" d="M418.472,221.795c-6.237,0-12.303,0.709-18.16,1.976c-7.451-58.959-57.675-104.59-118.658-104.59  c-36.408,0-68.956,16.309-90.914,41.954c-11.455-4.965-24.074-7.749-37.354-7.749c-45.32,0-83.137,32.059-92.055,74.731  c-31.258,12.722-53.314,43.361-53.314,79.19c0,47.227,38.285,85.512,85.511,85.512h324.944c47.227,0,85.511-38.285,85.511-85.512  S465.699,221.795,418.472,221.795z"/>
<path style="fill:#00AAF0;" d="M397.094,350.063H186.098c-43.268,0-81.048-32.651-83.843-75.828  c-3.063-47.313,34.406-86.643,81.061-86.643c3.614,0,7.173,0.237,10.662,0.695c7.452,0.979,14.783-3.154,17.588-10.128  c12.886-32.033,42.839-55.344,78.635-58.579c-2.831-0.201-5.664-0.399-8.547-0.399c-36.408,0-68.956,16.309-90.914,41.954  c-11.455-4.965-24.074-7.749-37.354-7.749c-45.32,0-83.137,32.059-92.055,74.731c-33.608,13.679-56.58,48.069-52.935,87.355  c4.116,44.366,43.218,77.346,87.773,77.346h300.925c11.807,0,21.378-9.571,21.378-21.378l0,0  C418.472,359.634,408.901,350.063,397.094,350.063z"/>
<path d="M418.472,213.779c-3.814,0-7.667,0.245-11.526,0.732c-11.503-59.471-63.96-103.346-125.293-103.346  c-35.368,0-68.992,14.669-93.142,40.446c-11.262-4.144-23.051-6.241-35.125-6.241c-46.654,0-87.608,32.135-98.954,77.001  C21.227,237.629,0,270.52,0,307.307c0,51.572,41.956,93.528,93.528,93.528h324.944c51.572,0,93.528-41.956,93.528-93.528  S470.044,213.779,418.472,213.779z M418.472,384.802H93.528c-42.731,0-77.495-34.764-77.495-77.495  c0-31.648,18.966-59.817,48.32-71.764c2.471-1.006,4.28-3.175,4.825-5.786c8.276-39.607,43.691-68.354,84.207-68.354  c11.819,0,23.314,2.385,34.166,7.088c3.229,1.4,6.991,0.53,9.278-2.141c21.302-24.882,52.22-39.151,84.823-39.151  c56.082,0,103.674,41.95,110.704,97.578c0.282,2.23,1.487,4.239,3.322,5.538c1.834,1.299,4.129,1.767,6.327,1.291  c5.503-1.191,11.043-1.795,16.465-1.795c42.731,0,77.495,34.764,77.495,77.495S461.203,384.802,418.472,384.802z"/>
<path d="M300.366,147.263c-6.129-1.256-12.425-1.893-18.712-1.893c-4.427,0-8.017,3.589-8.017,8.017  c0,4.427,3.589,8.017,8.017,8.017c5.209,0,10.422,0.527,15.493,1.566c0.543,0.111,1.084,0.165,1.618,0.165  c3.727,0,7.068-2.615,7.845-6.409C307.498,152.388,304.702,148.152,300.366,147.263z"/>
<path d="M153.386,179.574c-12.245,0-24.297,3.352-34.854,9.694c-3.796,2.28-5.024,7.204-2.744,11c1.504,2.503,4.158,3.89,6.88,3.89  c1.405,0,2.828-0.37,4.12-1.146c8.064-4.843,17.262-7.404,26.598-7.404c4.427,0,8.017-3.589,8.017-8.017  S157.814,179.574,153.386,179.574z"/>
<path d="M337.627,164.054c-3.542-2.656-8.567-1.938-11.223,1.603c-2.656,3.542-1.938,8.567,1.603,11.223  c16.97,12.726,27.771,31.26,30.416,52.186c0.512,4.052,3.963,7.013,7.944,7.013c0.335,0,0.673-0.021,1.015-0.064  c4.392-0.556,7.504-4.566,6.948-8.958C371.182,202.149,357.805,179.186,337.627,164.054z"/>
<path d="M474.387,287.477c-5.932-16.685-19.439-30.181-36.13-36.101c-4.174-1.479-8.754,0.704-10.236,4.876  c-1.479,4.173,0.703,8.755,4.876,10.236c12.188,4.322,22.049,14.177,26.382,26.361c1.167,3.284,4.256,5.333,7.553,5.333  c0.891,0,1.798-0.15,2.686-0.466C473.691,296.233,475.87,291.649,474.387,287.477z"/>
<g>
</g>
<g>
</g>
<g>
</g>
<g>
</g>
<g>
</g>
<g>
</g>
<g>
</g>
<g>
</g>
<g>
</g>
<g>
</g>
<g>
</g>
<g>
</g>
<g>
</g>
<g>
</g>
<g>
</g>
</svg>
