<?xml version="1.0" encoding="utf-8"?>
<!-- Generator: Adobe Illustrator 24.0.0, SVG Export Plug-In . SVG Version: 6.00 Build 0)  -->
<svg version="1.1" xmlns="http://www.w3.org/2000/svg" xmlns:xlink="http://www.w3.org/1999/xlink" x="0px" y="0px"
	 viewBox="0 0 256 256" enable-background="new 0 0 256 256" xml:space="preserve">
<g id="Layer_1">
</g>
<g id="Layer_2">
</g>
<g id="Layer_3">
</g>
<g id="Layer_4">
</g>
<g id="Layer_5">
</g>
<g id="Layer_6">
</g>
<g id="Layer_7">
</g>
<g id="Layer_8">
</g>
<g id="Layer_9">
</g>
<g id="Layer_10">
</g>
<g id="Layer_11">
</g>
<g id="Layer_12">
</g>
<g id="Layer_13">
</g>
<g id="Layer_14">
</g>
<g id="Layer_15">
</g>
<g id="Layer_16">
</g>
<g id="Layer_17">
</g>
<g id="Layer_18">
</g>
<g id="Layer_19">
</g>
<g id="Layer_20">
</g>
<g id="Layer_21">
</g>
<g id="Layer_22">
</g>
<g id="Layer_23">
</g>
<g id="Layer_24">
</g>
<g id="Layer_25">
</g>
<g id="Layer_26">
</g>
<g id="Layer_27">
</g>
<g id="Layer_28">
</g>
<g id="Layer_29">
</g>
<g id="Layer_30">
</g>
<g id="Layer_31">
</g>
<g id="Layer_32">
</g>
<g id="Layer_33">
</g>
<g id="Layer_34">
</g>
<g id="Layer_35">
</g>
<g id="Layer_36">
</g>
<g id="Layer_37">
</g>
<g id="Layer_38">
</g>
<g id="Layer_39">
</g>
<g id="Layer_40">
</g>
<g id="Layer_41">
</g>
<g id="Layer_42">
</g>
<g id="Layer_43">
</g>
<g id="Layer_44">
	<g>
		<g>
			<g>
				<path fill="#F5C84C" d="M145.439,21.85c-4.5-0.8-8-4.3-8.9-8.7c0-0.2-0.4-0.2-0.4,0c-0.9,4.4-4.4,7.9-8.9,8.7
					c-0.2,0-0.2,0.3,0,0.4c4.5,0.8,8,4.3,8.9,8.7c0,0.2,0.4,0.2,0.4,0c0.9-4.4,4.4-7.9,8.9-8.7
					C145.639,22.15,145.639,21.85,145.439,21.85z"/>
			</g>
		</g>
		<g>
			<g>
				<path fill="#FC657E" d="M239.378,128.845c-3.481-0.619-6.188-3.326-6.884-6.729c0-0.155-0.309-0.155-0.309,0
					c-0.696,3.403-3.403,6.111-6.884,6.729c-0.155,0-0.155,0.232,0,0.31c3.481,0.619,6.188,3.326,6.884,6.729
					c0,0.155,0.309,0.155,0.309,0c0.696-3.403,3.403-6.111,6.884-6.729C239.533,129.077,239.533,128.845,239.378,128.845z"/>
			</g>
		</g>
		<g>
			<g>
				<path fill="#70D6F9" d="M17.514,125.5h-2.3v-2.3c0-1.8-1.4-3.2-3.2-3.2s-3.2,1.5-3.2,3.2v2.3h-2.3c-1.8,0-3.2,1.4-3.2,3.2
					s1.5,3.2,3.2,3.2h2.3v2.3c0,1.8,1.4,3.2,3.2,3.2s3.2-1.5,3.2-3.2v-2.3h2.3c1.8,0,3.2-1.4,3.2-3.2S19.214,125.5,17.514,125.5z"/>
			</g>
		</g>
		<g>
			<g>
				<path fill="#87D147" d="M158.914,0c-1.878,0-3.4,1.522-3.4,3.4c0,1.878,1.522,3.4,3.4,3.4s3.4-1.522,3.4-3.4
					C162.314,1.522,160.792,0,158.914,0z"/>
			</g>
		</g>
		<g>
			<g>
				<path fill="#F5C84C" d="M28.914,146c-1.878,0-3.4,1.522-3.4,3.4c0,1.878,1.522,3.4,3.4,3.4c1.878,0,3.4-1.522,3.4-3.4
					C32.314,147.522,30.792,146,28.914,146z"/>
			</g>
		</g>
		<g>
			<g>
				<path fill="#F9D0B4" d="M214.236,80.116c-0.02-0.988-0.81-1.802-1.798-1.831c-14.465-0.424-22.087-6.157-25.016-9.028
					c-0.799-0.784-2.09-0.701-2.787,0.175c-12.718,15.993-31.479,13.737-37.787,12.416c-1.146-0.24-2.246,0.624-2.247,1.795
					c0,0.008,0,0.016,0,0.024v28.01c0,19.151,15.669,34.82,34.82,34.82h0c19.151,0,34.82-15.669,34.82-34.82V80.66
					C214.242,80.479,214.24,80.297,214.236,80.116z"/>
			</g>
		</g>
		<g>
			<g>
				<path fill="#FCDD86" d="M206.67,43.181c-3.71,0-7.179,1.048-10.161,2.836c-3.482-5.812-9.826-9.735-17.057-9.735h-10.214
					c-19.768,0-35.941,16.174-35.941,35.941v16.104c2.487-1.99,5.637-3.188,9.07-3.188c0.761,0,1.506,0.064,2.234,0.177v-1.673
					c0.001-1.171,1.101-2.035,2.247-1.795c6.308,1.32,25.069,3.577,37.787-12.416c0.697-0.876,1.987-0.959,2.787-0.175
					c2.929,2.871,10.55,8.604,25.016,9.028c0.987,0.029,1.778,0.843,1.798,1.83c0.004,0.181,0.005,0.363,0.005,0.545v4.657
					c0.729-0.113,1.474-0.177,2.234-0.177c3.919,0,7.469,1.558,10.083,4.079V63.071C226.559,52.132,217.609,43.181,206.67,43.181z"
					/>
			</g>
		</g>
		<g>
			<g>
				<path fill="#F9D0B4" d="M216.476,85.141c-0.761,0-1.506,0.064-2.234,0.177v26.36c0,0.785-0.036,1.563-0.088,2.335
					c0.758,0.122,1.53,0.203,2.322,0.203c8.029,0,14.537-6.509,14.537-14.538S224.505,85.141,216.476,85.141z"/>
			</g>
		</g>
		<g>
			<g>
				<path fill="#F9D0B4" d="M144.602,111.678v-26.36c-0.729-0.113-1.474-0.177-2.234-0.177c-8.029,0-14.538,6.509-14.538,14.538
					s6.509,14.538,14.538,14.538c0.792,0,1.564-0.081,2.322-0.203v0C144.638,113.24,144.602,112.463,144.602,111.678z"/>
			</g>
		</g>
		<g>
			<g>
				<path fill="#3A70BF" d="M202.679,159.002c-0.415-0.205-0.81-0.437-1.193-0.683c-4.462,7.548-12.679,12.625-22.064,12.625
					c-9.201,0-17.281-4.878-21.798-12.181c-0.148,0.081-0.294,0.165-0.446,0.24l-8.116,4.002
					c6.101,10.439,17.422,17.472,30.361,17.472c13.099,0,24.539-7.208,30.584-17.861L202.679,159.002z"/>
			</g>
		</g>
		<g>
			<g>
				<path fill="#F9D0B4" d="M195.97,148.214v-5.927c-4.929,2.684-10.569,4.211-16.548,4.211c-5.575,0-10.851-1.335-15.535-3.691
					v5.407c0,4.41-2.416,8.447-6.263,10.549c4.518,7.303,12.598,12.181,21.798,12.181c9.385,0,17.603-5.076,22.064-12.625
					C198.077,156.123,195.97,152.332,195.97,148.214z"/>
			</g>
		</g>
		<g>
			<g>
				<path fill="#5290DB" d="M249.644,183.082c-0.334-6.004-4.534-11.093-10.365-12.561l-27.042-6.807l-2.23-1.1
					c-6.045,10.653-17.485,17.861-30.584,17.861c-12.939,0-24.259-7.033-30.361-17.472l-1.441,0.711L128,168.653l7.422,1.868
					c5.831,1.468,10.031,6.557,10.365,12.561l3.85,66.385c0.122,2.19-1.621,4.032-3.814,4.032H249.68
					c2.193,0,3.936-1.843,3.814-4.032L249.644,183.082z"/>
			</g>
		</g>
		<g>
			<g>
				<polygon fill="#29589F" points="251.774,219.817 228.156,219.817 228.156,230.109 252.371,230.109 				"/>
			</g>
		</g>
		<g>
			<g>
				<path fill="#F9D0B4" d="M252.371,230.109h-24.215V253.5h21.524c2.193,0,3.936-1.843,3.814-4.032L252.371,230.109z"/>
			</g>
		</g>
		<g>
			<g>
				<path fill="#3A70BF" d="M249.644,183.083c-0.165-2.968-1.278-5.71-3.062-7.904l-11.981,9.797
					c-4.079,3.335-6.445,8.326-6.445,13.595v21.245h23.618L249.644,183.083z"/>
			</g>
		</g>
		<g>
			<g>
				<path d="M191.441,118.023c-1.059-0.887-2.633-0.749-3.522,0.309c-1.652,1.972-4.464,3.149-7.519,3.149s-5.865-1.177-7.518-3.149
					c-0.889-1.059-2.465-1.196-3.522-0.309c-1.058,0.887-1.196,2.464-0.31,3.522c2.592,3.091,6.835,4.936,11.35,4.936
					c4.516,0,8.759-1.845,11.351-4.936C192.638,120.487,192.499,118.91,191.441,118.023z"/>
			</g>
		</g>
		<g>
			<g>
				<circle cx="194.066" cy="101.753" r="4.21"/>
			</g>
		</g>
		<g>
			<g>
				<path d="M165.79,97.543c-2.325,0-4.21,1.885-4.21,4.21s1.885,4.21,4.21,4.21c2.325,0,4.21-1.885,4.21-4.21
					S168.115,97.543,165.79,97.543z"/>
			</g>
		</g>
		<g>
			<g>
				<g>
					<g>
						<path d="M216.736,80.066c-0.047-2.332-1.902-4.212-4.225-4.28c-13.823-0.405-20.927-5.95-23.338-8.314
							c-0.885-0.868-2.102-1.322-3.334-1.246c-1.235,0.077-2.388,0.678-3.16,1.65v0c-11.641,14.638-28.577,12.936-35.319,11.526
							c-1.294-0.271-2.626,0.052-3.653,0.885c-1.019,0.826-1.604,2.048-1.605,3.381v28.01c0,20.578,16.742,37.32,37.32,37.32
							s37.32-16.742,37.32-37.32V80.661C216.742,80.46,216.74,80.261,216.736,80.066z M211.742,111.678
							c0,17.821-14.499,32.32-32.32,32.32s-32.32-14.499-32.32-32.32v-27.23c6.724,1.264,25.866,3.116,39.066-12.934
							c3.704,3.435,11.601,8.693,25.574,9.249V111.678z"/>
					</g>
				</g>
			</g>
		</g>
		<g>
			<g>
				<path d="M206.67,40.682c-3.221,0-6.41,0.713-9.347,2.078c-4.213-5.589-10.865-8.977-17.871-8.977h-10.214
					c-21.196,0-38.441,17.245-38.441,38.441v15.755c0,1.381,1.119,2.5,2.5,2.5s2.5-1.119,2.5-2.5V72.224
					c0-18.439,15.002-33.441,33.441-33.441h10.214c6.049,0,11.763,3.265,14.912,8.521c0.341,0.569,0.894,0.979,1.537,1.14
					c0.642,0.16,1.323,0.059,1.893-0.281c2.706-1.623,5.775-2.48,8.876-2.48c9.589,0,17.39,7.801,17.39,17.39v25.386
					c0,1.381,1.119,2.5,2.5,2.5s2.5-1.119,2.5-2.5V63.071C229.06,50.726,219.016,40.682,206.67,40.682z"/>
			</g>
		</g>
		<g>
			<g>
				<path d="M216.477,82.641c-0.522,0-1.061,0.026-1.599,0.078c-1.374,0.132-2.381,1.354-2.249,2.728s1.353,2.381,2.728,2.25
					c0.368-0.036,0.742-0.055,1.12-0.055c6.638,0,12.037,5.4,12.037,12.038s-5.399,12.038-12.037,12.038
					c-0.356,0-0.724-0.021-1.123-0.063c-1.378-0.144-2.604,0.853-2.748,2.225c-0.145,1.373,0.852,2.603,2.225,2.748
					c0.575,0.061,1.114,0.09,1.646,0.09c9.395,0,17.037-7.643,17.037-17.038S225.871,82.641,216.477,82.641z"/>
			</g>
		</g>
		<g>
			<g>
				<path d="M142.367,87.641c0.414,0,0.841,0.023,1.267,0.07c1.365,0.146,2.606-0.841,2.757-2.214
					c0.149-1.373-0.841-2.606-2.214-2.757c-0.605-0.066-1.215-0.1-1.81-0.1c-9.395,0-17.037,7.643-17.037,17.038
					s7.643,17.038,17.037,17.038c0.53,0,1.066-0.029,1.637-0.089c1.373-0.144,2.369-1.374,2.226-2.747
					c-0.145-1.373-1.362-2.372-2.747-2.226c-0.396,0.042-0.76,0.062-1.115,0.062c-6.638,0-12.037-5.4-12.037-12.038
					S135.729,87.641,142.367,87.641z"/>
			</g>
		</g>
		<g>
			<g>
				<g>
					<g>
						<path d="M212.396,161.88c-0.202-0.658-0.667-1.203-1.284-1.507l-7.326-3.612c-0.296-0.146-0.604-0.324-0.946-0.543
							c-0.572-0.368-1.268-0.489-1.93-0.331c-0.661,0.156-1.23,0.576-1.576,1.161c-4.154,7.03-11.784,11.396-19.912,11.396
							c-8.059,0-15.412-4.111-19.672-10.996c-0.696-1.127-2.153-1.514-3.318-0.882l-0.144,0.079c-0.071,0.04-0.143,0.08-0.216,0.116
							l-8.116,4.002c-0.622,0.307-1.089,0.858-1.289,1.523c-0.199,0.665-0.114,1.382,0.236,1.981
							c6.745,11.541,19.206,18.709,32.519,18.709c13.511,0,26.063-7.329,32.759-19.126
							C212.521,163.25,212.599,162.539,212.396,161.88z M179.422,177.976c-10.645,0-20.663-5.29-26.748-13.965l4.11-2.026
							c5.299,7.216,13.604,11.46,22.638,11.46c9.082,0,17.65-4.479,22.9-11.83l4.105,2.024
							C200.37,172.543,190.25,177.976,179.422,177.976z"/>
					</g>
				</g>
			</g>
		</g>
		<g>
			<g>
				<path d="M163.887,140.922c-1.381,0-2.5,1.119-2.5,2.5v4.792c0,3.481-1.901,6.683-4.962,8.355
					c-1.211,0.662-1.656,2.181-0.994,3.393c0.454,0.831,1.311,1.302,2.195,1.302c0.405,0,0.816-0.099,1.197-0.307
					c4.665-2.55,7.563-7.432,7.563-12.743v-4.792C166.387,142.042,165.268,140.922,163.887,140.922z"/>
			</g>
		</g>
		<g>
			<g>
				<path d="M202.841,156.218c-2.737-1.764-4.371-4.755-4.371-8.004v-5.338c0-1.381-1.119-2.5-2.5-2.5s-2.5,1.119-2.5,2.5v5.338
					c0,4.956,2.49,9.519,6.662,12.207c0.419,0.27,0.889,0.399,1.353,0.399c0.821,0,1.625-0.405,2.104-1.146
					C204.336,158.513,204.001,156.966,202.841,156.218z"/>
			</g>
		</g>
		<g>
			<g>
				<path d="M151.304,161.899c-0.609-1.239-2.109-1.748-3.348-1.137l-1.203,0.593l-19.169,4.825
					c-1.339,0.337-2.151,1.696-1.814,3.035c0.286,1.134,1.305,1.89,2.423,1.89c0.202,0,0.407-0.024,0.612-0.076l19.426-4.89
					c0.171-0.043,0.337-0.104,0.495-0.182l1.441-0.71C151.405,164.636,151.914,163.138,151.304,161.899z"/>
			</g>
		</g>
		<g>
			<g>
				<path d="M255.99,249.323l-3.851-66.379c-0.396-7.136-5.32-13.103-12.251-14.847l-26.784-6.742l-1.992-0.982
					c-1.238-0.611-2.737-0.102-3.348,1.136c-0.61,1.238-0.102,2.737,1.137,3.348l2.229,1.1c0.158,0.078,0.324,0.139,0.495,0.182
					l27.042,6.807c4.797,1.208,8.205,5.337,8.479,10.281l3.851,66.379c0.027,0.494-0.214,0.827-0.359,0.981
					c-0.146,0.154-0.465,0.413-0.959,0.413H146.432c-1.381,0-2.5,1.119-2.5,2.5s1.119,2.5,2.5,2.5H249.68
					c1.729,0,3.402-0.72,4.591-1.976C255.459,252.768,256.086,251.057,255.99,249.323z"/>
			</g>
		</g>
		<g>
			<g>
				<path d="M251.438,227.609h-20.782v-5.292h20.364c1.381,0,2.5-1.119,2.5-2.5s-1.119-2.5-2.5-2.5h-22.864
					c-1.381,0-2.5,1.119-2.5,2.5v10.292c0,1.381,1.119,2.5,2.5,2.5h23.282c1.381,0,2.5-1.119,2.5-2.5
					S252.819,227.609,251.438,227.609z"/>
			</g>
		</g>
		<g>
			<g>
				<path d="M228.156,227.609c-1.381,0-2.5,1.119-2.5,2.5v22.559c0,1.381,1.119,2.5,2.5,2.5s2.5-1.119,2.5-2.5v-22.559
					C230.656,228.728,229.537,227.609,228.156,227.609z"/>
			</g>
		</g>
		<g>
			<g>
				<path d="M248.097,173.941c-0.874-1.068-2.45-1.228-3.518-0.353l-11.562,9.453c-4.678,3.826-7.361,9.487-7.361,15.531v21.245
					c0,1.381,1.119,2.5,2.5,2.5s2.5-1.119,2.5-2.5v-21.245c0-4.538,2.015-8.788,5.526-11.66l11.561-9.453
					C248.813,176.585,248.971,175.01,248.097,173.941z"/>
			</g>
		</g>
		<g>
			<g>
				<path fill="#F9D0B4" d="M110.38,80.116c-0.02-0.988-0.81-1.802-1.798-1.831c-14.465-0.424-22.087-6.157-25.016-9.028
					c-0.799-0.784-2.09-0.701-2.787,0.175C68.062,85.426,49.301,83.169,42.993,81.849c-1.146-0.24-2.246,0.624-2.247,1.795
					c0,0.008,0,0.016,0,0.024v28.01c0,19.151,15.669,34.82,34.82,34.82h0c19.151,0,34.82-15.669,34.82-34.82V80.66
					C110.385,80.479,110.383,80.297,110.38,80.116z"/>
			</g>
		</g>
		<g>
			<g>
				<path fill="#5B5D60" d="M102.813,43.181c-3.71,0-7.179,1.048-10.161,2.836c-3.482-5.812-9.826-9.735-17.057-9.735H65.382
					c-19.768,0-35.941,16.174-35.941,35.941v16.104c2.487-1.99,5.637-3.188,9.07-3.188c0.761,0,1.506,0.064,2.234,0.177v-1.673
					c0.001-1.171,1.101-2.035,2.247-1.795c6.308,1.32,25.069,3.577,37.787-12.416c0.697-0.876,1.987-0.959,2.787-0.175
					c2.929,2.871,10.55,8.604,25.016,9.028c0.987,0.029,1.778,0.843,1.798,1.83c0.004,0.181,0.005,0.363,0.005,0.545v4.657
					c0.729-0.113,1.474-0.177,2.234-0.177c3.919,0,7.469,1.558,10.083,4.079V63.071C122.703,52.132,113.752,43.181,102.813,43.181z"
					/>
			</g>
		</g>
		<g>
			<g>
				<path fill="#F9D0B4" d="M112.62,85.141c-0.761,0-1.506,0.064-2.234,0.177v26.36c0,0.785-0.036,1.563-0.088,2.335
					c0.758,0.122,1.53,0.203,2.322,0.203c8.029,0,14.538-6.509,14.538-14.538S120.649,85.141,112.62,85.141z"/>
			</g>
		</g>
		<g>
			<g>
				<path fill="#F9D0B4" d="M40.745,111.678v-26.36c-0.729-0.113-1.474-0.177-2.234-0.177c-8.029,0-14.538,6.509-14.538,14.538
					s6.509,14.538,14.538,14.538c0.792,0,1.564-0.081,2.322-0.203v0C40.781,113.24,40.745,112.463,40.745,111.678z"/>
			</g>
		</g>
		<g>
			<g>
				<path fill="#FCDD86" d="M98.823,159.002c-0.415-0.205-0.81-0.437-1.193-0.683c-4.462,7.548-12.679,12.625-22.064,12.625
					c-9.201,0-17.281-4.878-21.798-12.181c-0.148,0.081-0.294,0.165-0.446,0.24l-8.116,4.002
					c6.101,10.439,17.422,17.472,30.361,17.472c13.099,0,24.539-7.208,30.584-17.861L98.823,159.002z"/>
			</g>
		</g>
		<g>
			<g>
				<path fill="#F9D0B4" d="M92.113,148.214v-5.927c-4.929,2.684-10.569,4.211-16.548,4.211c-5.575,0-10.851-1.335-15.535-3.691
					v5.407c0,4.41-2.416,8.447-6.263,10.549c4.518,7.303,12.598,12.181,21.798,12.181c9.385,0,17.603-5.076,22.064-12.625
					C94.22,156.123,92.113,152.332,92.113,148.214z"/>
			</g>
		</g>
		<g>
			<g>
				<path fill="#F5C84C" d="M145.787,183.082c-0.334-6.004-4.534-11.093-10.365-12.561l-27.042-6.807l-2.23-1.1
					c-6.045,10.653-17.485,17.861-30.584,17.861c-12.939,0-24.259-7.033-30.361-17.472l-1.442,0.711l-27.042,6.807
					c-5.831,1.468-10.031,6.557-10.365,12.561l-3.85,66.385c-0.122,2.19,1.621,4.032,3.814,4.032h139.503
					c2.193,0,3.936-1.843,3.814-4.032L145.787,183.082z"/>
			</g>
		</g>
		<g>
			<g>
				<path fill="#EDF4FC" d="M92.675,197.829H59.468c-3.518,0-6.396,2.878-6.396,6.396v33.208c0,3.518,2.878,6.396,6.396,6.396
					h33.208c3.518,0,6.396-2.878,6.396-6.396v-33.208C99.071,200.707,96.193,197.829,92.675,197.829z"/>
			</g>
		</g>
		<g>
			<g>
				<polygon fill="#FCA265" points="147.918,219.817 124.299,219.817 124.299,230.109 148.514,230.109 				"/>
			</g>
		</g>
		<g>
			<g>
				<path fill="#F9D0B4" d="M148.514,230.109h-24.215V253.5h21.524c2.193,0,3.936-1.843,3.814-4.032L148.514,230.109z"/>
			</g>
		</g>
		<g>
			<g>
				<path fill="#F5C84C" d="M145.787,183.083c-0.165-2.968-1.278-5.71-3.062-7.904l-11.981,9.797
					c-4.079,3.335-6.445,8.326-6.445,13.595v21.245h23.618L145.787,183.083z"/>
			</g>
		</g>
		<g>
			<g>
				<polygon fill="#FCA265" points="4.226,219.817 3.629,230.109 27.844,230.109 27.844,219.817 				"/>
			</g>
		</g>
		<g>
			<g>
				<path fill="#F9D0B4" d="M3.629,230.109l-1.123,19.359c-0.122,2.19,1.621,4.032,3.814,4.032h21.524v-23.391H3.629z"/>
			</g>
		</g>
		<g>
			<g>
				<path fill="#F5C84C" d="M21.399,184.976l-11.981-9.797c-1.784,2.194-2.897,4.936-3.062,7.904l-2.13,36.734h23.618v-21.245
					C27.844,193.302,25.478,188.312,21.399,184.976z"/>
			</g>
		</g>
		<g>
			<g>
				<path fill="#FCA265" d="M45.205,163.004l-1.442,0.711l-27.042,6.807c-2.949,0.742-5.478,2.413-7.304,4.657l11.981,9.797
					c3.77,3.083,6.072,7.581,6.4,12.405l1.707-3.725c3.83-8.357,11.045-14.682,19.832-17.386l6.379-1.963
					C51.437,171.364,47.834,167.503,45.205,163.004z"/>
			</g>
		</g>
		<g>
			<g>
				<path fill="#FCA265" d="M135.422,170.521l-27.042-6.807l-2.23-1.1c-2.585,4.556-6.163,8.474-10.43,11.475l7.085,2.18
					c8.786,2.704,16.001,9.029,19.832,17.386l1.707,3.725c0.328-4.824,2.63-9.322,6.4-12.405l11.966-9.784
					C140.885,172.947,138.371,171.264,135.422,170.521z"/>
			</g>
		</g>
		<g>
			<g>
				<path d="M87.585,118.023c-1.058-0.887-2.634-0.749-3.522,0.309c-1.652,1.972-4.464,3.149-7.519,3.149s-5.865-1.177-7.518-3.148
					c-0.886-1.057-2.464-1.197-3.521-0.31c-1.059,0.887-1.197,2.463-0.311,3.522c2.591,3.091,6.833,4.937,11.35,4.937
					c4.516,0,8.759-1.845,11.351-4.936C88.781,120.487,88.643,118.91,87.585,118.023z"/>
			</g>
		</g>
		<g>
			<g>
				<path d="M90.21,97.543c-2.325,0-4.21,1.885-4.21,4.21s1.885,4.21,4.21,4.21c2.325,0,4.21-1.885,4.21-4.21
					S92.535,97.543,90.21,97.543z"/>
			</g>
		</g>
		<g>
			<g>
				<path d="M61.934,97.543c-2.325,0-4.21,1.885-4.21,4.21s1.885,4.21,4.21,4.21c2.325,0,4.21-1.885,4.21-4.21
					S64.259,97.543,61.934,97.543z"/>
			</g>
		</g>
		<g>
			<g>
				<g>
					<g>
						<path d="M69.347,209.606c-6.284,0-8.096,4.891-8.096,11.208c0,6.296,1.777,11.265,8.096,11.265
							c6.318,0,8.126-4.966,8.126-11.265C77.472,214.503,75.61,209.606,69.347,209.606z M69.347,227.813
							c-3.381,0-3.715-3.363-3.715-6.999c0-3.608,0.335-6.913,3.715-6.913c3.402,0,3.744,3.234,3.744,6.913
							C73.091,224.478,72.773,227.813,69.347,227.813z"/>
					</g>
				</g>
			</g>
		</g>
		<g>
			<g>
				<path d="M86.256,209.895h-5.819c-0.494,0-0.894,0.401-0.894,0.895v2.448c0,0.494,0.401,0.895,0.894,0.895h2.159v16.967
					c0,0.494,0.401,0.895,0.895,0.895h2.766c0.494,0,0.894-0.401,0.894-0.895v-20.31C87.151,210.295,86.75,209.895,86.256,209.895z"
					/>
			</g>
		</g>
		<g>
			<g>
				<g>
					<g>
						<path d="M112.88,80.066c-0.047-2.332-1.902-4.212-4.225-4.28c-13.823-0.405-20.927-5.95-23.338-8.314
							c-0.885-0.868-2.104-1.322-3.334-1.246c-1.235,0.077-2.388,0.678-3.16,1.65v0c-11.64,14.638-28.577,12.936-35.319,11.526
							c-1.29-0.272-2.626,0.051-3.655,0.887c-1.018,0.826-1.603,2.048-1.604,3.379v28.01c0,20.578,16.742,37.32,37.32,37.32
							s37.32-16.742,37.32-37.32V80.661C112.886,80.46,112.884,80.261,112.88,80.066z M107.886,111.678
							c0,17.821-14.499,32.32-32.32,32.32s-32.32-14.499-32.32-32.32v-27.23c6.724,1.266,25.865,3.114,39.066-12.934
							c3.704,3.435,11.601,8.693,25.574,9.249V111.678z"/>
					</g>
				</g>
			</g>
		</g>
		<g>
			<g>
				<path d="M102.813,40.682c-3.221,0-6.41,0.713-9.347,2.078c-4.213-5.589-10.864-8.977-17.871-8.977H65.382
					c-21.196,0-38.441,17.245-38.441,38.441v15.808c0,1.381,1.119,2.5,2.5,2.5s2.5-1.119,2.5-2.5V72.224
					c0-18.439,15.002-33.441,33.441-33.441h10.214c6.049,0,11.763,3.265,14.912,8.521c0.341,0.569,0.894,0.979,1.537,1.14
					c0.642,0.16,1.323,0.059,1.893-0.281c2.706-1.623,5.775-2.48,8.876-2.48c9.589,0,17.39,7.801,17.39,17.39v25.386
					c0,1.381,1.119,2.5,2.5,2.5s2.5-1.119,2.5-2.5V63.071C125.203,50.726,115.159,40.682,102.813,40.682z"/>
			</g>
		</g>
		<g>
			<g>
				<path d="M112.62,82.641c-0.512,0-1.035,0.025-1.557,0.074c-1.375,0.129-2.384,1.349-2.255,2.723
					c0.13,1.375,1.339,2.393,2.724,2.254c0.358-0.034,0.721-0.052,1.088-0.052c6.638,0,12.037,5.4,12.037,12.038
					s-5.399,12.038-12.037,12.038c-0.358,0-0.724-0.021-1.116-0.062c-1.368-0.15-2.604,0.848-2.751,2.221
					c-0.146,1.373,0.849,2.604,2.222,2.75c0.57,0.061,1.108,0.09,1.646,0.09c9.395,0,17.037-7.643,17.037-17.038
					S122.015,82.641,112.62,82.641z"/>
			</g>
		</g>
		<g>
			<g>
				<path d="M40.69,82.785c-0.734-0.096-1.467-0.144-2.18-0.144c-9.395,0-17.037,7.643-17.037,17.038s7.643,17.038,17.037,17.038
					c0.474,0,0.941-0.023,1.403-0.066c1.375-0.126,2.387-1.344,2.26-2.719c-0.126-1.375-1.342-2.381-2.719-2.26
					c-0.312,0.028-0.625,0.045-0.944,0.045c-6.638,0-12.037-5.4-12.037-12.038s5.399-12.038,12.037-12.038
					c0.497,0,1.014,0.034,1.533,0.102c1.384,0.18,2.625-0.787,2.803-2.156S42.06,82.963,40.69,82.785z"/>
			</g>
		</g>
		<g>
			<g>
				<g>
					<g>
						<path d="M108.54,161.88c-0.202-0.658-0.667-1.203-1.284-1.507l-7.326-3.612c-0.296-0.146-0.604-0.324-0.946-0.543
							c-0.571-0.368-1.271-0.489-1.929-0.331c-0.662,0.156-1.231,0.575-1.577,1.161c-4.155,7.029-11.785,11.396-19.912,11.396
							c-8.059,0-15.413-4.111-19.673-10.997c-0.698-1.129-2.162-1.516-3.324-0.878l-0.125,0.069
							c-0.077,0.042-0.155,0.086-0.228,0.123l-8.116,4.002c-0.622,0.307-1.089,0.858-1.289,1.523
							c-0.199,0.664-0.114,1.382,0.236,1.98c6.744,11.541,19.205,18.71,32.519,18.71c13.511,0,26.063-7.329,32.759-19.126
							C108.664,163.25,108.742,162.539,108.54,161.88z M75.565,177.976c-10.646,0-20.664-5.29-26.748-13.965l4.109-2.026
							c5.3,7.216,13.604,11.459,22.639,11.459c9.081,0,17.649-4.479,22.9-11.83l4.105,2.024
							C96.514,172.543,86.394,177.976,75.565,177.976z"/>
					</g>
				</g>
			</g>
		</g>
		<g>
			<g>
				<path d="M60.03,141.167c-1.381,0-2.5,1.119-2.5,2.5v4.547c0,3.481-1.901,6.683-4.962,8.355
					c-1.212,0.662-1.657,2.181-0.996,3.393c0.454,0.831,1.312,1.302,2.196,1.302c0.405,0,0.816-0.099,1.196-0.307
					c4.667-2.549,7.565-7.432,7.565-12.743v-4.547C62.53,142.286,61.411,141.167,60.03,141.167z"/>
			</g>
		</g>
		<g>
			<g>
				<path d="M98.984,156.218c-2.737-1.764-4.371-4.755-4.371-8.004v-5.245c0-1.381-1.119-2.5-2.5-2.5s-2.5,1.119-2.5,2.5v5.245
					c0,4.956,2.49,9.519,6.662,12.207c0.419,0.27,0.889,0.399,1.353,0.399c0.821,0,1.625-0.405,2.104-1.146
					C100.479,158.513,100.145,156.966,98.984,156.218z"/>
			</g>
		</g>
		<g>
			<g>
				<path d="M152.133,249.323l-3.85-66.379c-0.396-7.136-5.32-13.102-12.251-14.847l-26.784-6.742l-1.992-0.982
					c-1.238-0.611-2.736-0.102-3.348,1.136c-0.61,1.238-0.102,2.737,1.137,3.348l2.229,1.1c0.158,0.078,0.324,0.139,0.495,0.182
					l27.042,6.807c4.797,1.208,8.205,5.337,8.479,10.281l3.85,66.38c0.027,0.494-0.213,0.826-0.358,0.98
					c-0.146,0.154-0.465,0.413-0.959,0.413H6.32c-0.494,0-0.813-0.259-0.959-0.413c-0.146-0.154-0.387-0.487-0.359-0.975
					l3.851-66.391c0.274-4.938,3.683-9.068,8.479-10.275l27.042-6.807c0.171-0.043,0.337-0.104,0.495-0.182l1.441-0.71
					c1.238-0.61,1.747-2.109,1.137-3.348c-0.609-1.239-2.109-1.748-3.348-1.137l-1.203,0.593l-26.785,6.742
					c-6.931,1.745-11.854,7.711-12.251,14.84L0.01,249.33c-0.096,1.727,0.531,3.438,1.72,4.694C2.918,255.28,4.592,256,6.32,256
					h139.503c1.729,0,3.402-0.721,4.591-1.977S152.229,251.056,152.133,249.323z"/>
			</g>
		</g>
		<g>
			<g>
				<g>
					<g>
						<path d="M92.676,195.329H59.468c-4.905,0-8.896,3.991-8.896,8.896v33.208c0,4.905,3.99,8.896,8.896,8.896h33.208
							c4.905,0,8.896-3.991,8.896-8.896v-33.208C101.571,199.32,97.581,195.329,92.676,195.329z M96.571,237.433
							c0,2.148-1.747,3.896-3.896,3.896H59.468c-2.148,0-3.896-1.748-3.896-3.896v-33.208c0-2.148,1.747-3.896,3.896-3.896h33.208
							c2.148,0,3.896,1.748,3.896,3.896V237.433z"/>
					</g>
				</g>
			</g>
		</g>
		<g>
			<g>
				<path d="M147.844,227.609H126.8v-5.292h20.45c1.381,0,2.5-1.119,2.5-2.5s-1.119-2.5-2.5-2.5H124.3c-1.381,0-2.5,1.119-2.5,2.5
					v10.292c0,1.381,1.119,2.5,2.5,2.5h23.544c1.381,0,2.5-1.119,2.5-2.5S149.225,227.609,147.844,227.609z"/>
			</g>
		</g>
		<g>
			<g>
				<path d="M124.3,227.609c-1.381,0-2.5,1.119-2.5,2.5v22.6c0,1.381,1.119,2.5,2.5,2.5s2.5-1.119,2.5-2.5v-22.6
					C126.8,228.728,125.681,227.609,124.3,227.609z"/>
			</g>
		</g>
		<g>
			<g>
				<path d="M144.144,174.02c-0.874-1.07-2.45-1.226-3.519-0.353l-11.464,9.374c-4.678,3.826-7.361,9.487-7.361,15.531v21.245
					c0,1.381,1.119,2.5,2.5,2.5s2.5-1.119,2.5-2.5v-21.245c0-4.538,2.015-8.788,5.527-11.66l11.464-9.374
					C144.859,176.664,145.018,175.088,144.144,174.02z"/>
			</g>
		</g>
		<g>
			<g>
				<path d="M27.844,217.317H5.292c-1.381,0-2.5,1.119-2.5,2.5s1.119,2.5,2.5,2.5h20.052v5.292H4.667c-1.381,0-2.5,1.119-2.5,2.5
					s1.119,2.5,2.5,2.5h23.177c1.381,0,2.5-1.119,2.5-2.5v-10.292C30.344,218.436,29.225,217.317,27.844,217.317z"/>
			</g>
		</g>
		<g>
			<g>
				<path d="M27.844,227.609c-1.381,0-2.5,1.119-2.5,2.5v22.224c0,1.381,1.119,2.5,2.5,2.5s2.5-1.119,2.5-2.5v-22.224
					C30.344,228.728,29.225,227.609,27.844,227.609z"/>
			</g>
		</g>
		<g>
			<g>
				<path d="M22.982,183.041l-11.268-9.213c-1.069-0.872-2.645-0.717-3.519,0.353c-0.874,1.069-0.716,2.644,0.354,3.518
					l11.267,9.213c3.513,2.872,5.527,7.122,5.527,11.66v21.245c0,1.381,1.119,2.5,2.5,2.5s2.5-1.119,2.5-2.5v-21.245
					C30.344,192.527,27.66,186.866,22.982,183.041z"/>
			</g>
		</g>
		<g>
			<g>
				<path d="M57.632,173.719c-0.406-1.32-1.804-2.063-3.125-1.655l-5.904,1.816c-9.457,2.91-17.246,9.738-21.368,18.734l-1.586,3.46
					c-0.575,1.255-0.024,2.739,1.23,3.314c0.338,0.155,0.691,0.228,1.04,0.228c0.947,0,1.854-0.541,2.274-1.459l1.586-3.46
					c3.529-7.701,10.197-13.546,18.294-16.038l5.904-1.816C57.297,176.437,58.038,175.038,57.632,173.719z"/>
			</g>
		</g>
		<g>
			<g>
				<path d="M126.465,196.009l-1.556-3.395c-4.122-8.996-11.911-15.824-21.368-18.734l-6.469-1.99
					c-1.318-0.404-2.718,0.334-3.125,1.654c-0.406,1.32,0.335,2.719,1.654,3.125l6.469,1.99c8.097,2.491,14.765,8.337,18.294,16.038
					l1.556,3.395c0.42,0.918,1.326,1.459,2.274,1.459c0.348,0,0.702-0.073,1.04-0.228
					C126.489,198.748,127.04,197.264,126.465,196.009z"/>
			</g>
		</g>
		<g>
			<g>
				<path fill="#FC657E" d="M183.723,220.637h-7.964c-1.012,0-1.833,0.821-1.833,1.833v7.456h11.63v-7.456
					C185.556,221.458,184.736,220.637,183.723,220.637z"/>
			</g>
		</g>
		<g>
			<g>
				<path fill="#FC657E" d="M173.926,229.925v10.149c0,1.335,1.082,2.417,2.417,2.417h6.796c1.335,0,2.417-1.082,2.417-2.417
					v-10.149H173.926z"/>
			</g>
		</g>
		<g>
			<g>
				<path d="M179.741,210.767c-1.381,0-2.5,1.119-2.5,2.5v6.654c0,1.381,1.119,2.5,2.5,2.5s2.5-1.119,2.5-2.5v-6.654
					C182.241,211.886,181.122,210.767,179.741,210.767z"/>
			</g>
		</g>
		<g>
			<g>
				<path d="M182.062,212.335l-22.924-57.074c-0.515-1.281-1.968-1.902-3.252-1.388c-1.281,0.515-1.902,1.97-1.389,3.251
					l22.924,57.074c0.393,0.976,1.33,1.569,2.321,1.569c0.31,0,0.625-0.058,0.931-0.181
					C181.954,215.072,182.575,213.617,182.062,212.335z"/>
			</g>
		</g>
		<g>
			<g>
				<path d="M203.596,153.873c-1.284-0.514-2.736,0.107-3.252,1.388l-22.923,57.074c-0.514,1.281,0.107,2.737,1.389,3.251
					c0.306,0.123,0.621,0.181,0.931,0.181c0.991,0,1.929-0.593,2.321-1.569l22.923-57.074
					C205.499,155.843,204.877,154.388,203.596,153.873z"/>
			</g>
		</g>
		<g>
			<g>
				<g>
					<g>
						<path d="M183.724,218.137h-7.965c-2.39,0-4.333,1.944-4.333,4.333v7.456c0,1.381,1.119,2.5,2.5,2.5h11.63
							c1.381,0,2.5-1.119,2.5-2.5v-7.456C188.056,220.081,186.112,218.137,183.724,218.137z M183.056,227.425h-6.63v-4.289h6.63
							V227.425z"/>
					</g>
				</g>
			</g>
		</g>
		<g>
			<g>
				<g>
					<g>
						<path d="M185.556,227.425h-11.63c-1.381,0-2.5,1.119-2.5,2.5v10.149c0,2.711,2.206,4.917,4.917,4.917h6.796
							c2.711,0,4.917-2.206,4.917-4.917v-10.149C188.056,228.544,186.937,227.425,185.556,227.425z M183.056,239.992h-6.63v-7.566
							h6.63V239.992z"/>
					</g>
				</g>
			</g>
		</g>
	</g>
</g>
<g id="Layer_45">
</g>
<g id="Layer_46">
</g>
<g id="Layer_47">
</g>
<g id="Layer_48">
</g>
<g id="Layer_49">
</g>
<g id="Layer_50">
</g>
<g id="Layer_51">
</g>
<g id="Layer_52">
</g>
<g id="Layer_53">
</g>
<g id="Layer_54">
</g>
<g id="Layer_55">
</g>
<g id="Layer_56">
</g>
<g id="Layer_57">
</g>
<g id="Layer_58">
</g>
<g id="Layer_59">
</g>
<g id="Layer_60">
</g>
<g id="Layer_61">
</g>
<g id="Layer_62">
</g>
<g id="Layer_63">
</g>
<g id="Layer_64">
</g>
<g id="Layer_65">
</g>
<g id="Layer_66">
</g>
<g id="Layer_67">
</g>
<g id="Layer_68">
</g>
<g id="Layer_69">
</g>
<g id="Layer_70">
</g>
<g id="Layer_71">
</g>
<g id="Layer_72">
</g>
<g id="Layer_73">
</g>
<g id="Layer_74">
</g>
<g id="Layer_75">
</g>
</svg>
