<?xml version="1.0" encoding="iso-8859-1"?>
<!-- Generator: Adobe Illustrator 19.0.0, SVG Export Plug-In . SVG Version: 6.00 Build 0)  -->
<svg xmlns="http://www.w3.org/2000/svg" xmlns:xlink="http://www.w3.org/1999/xlink" version="1.1" id="Layer_1" x="0px" y="0px" viewBox="0 0 512 512" style="enable-background:new 0 0 512 512;" xml:space="preserve">
<polygon style="fill:#D7D5D9;" points="332.309,384.101 169.482,384.101 202.939,276.14 298.851,276.14 "/>
<rect x="136.769" y="374.893" style="fill:#ACAAB1;" width="238.662" height="34.201"/>
<g>
	<rect x="7.603" y="468.918" style="fill:#D7D5D9;" width="296.046" height="35.483"/>
	<rect x="23.825" y="444.251" style="fill:#D7D5D9;" width="43.94" height="24.669"/>
	<rect x="94.218" y="444.251" style="fill:#D7D5D9;" width="43.94" height="24.669"/>
	<rect x="164.61" y="444.251" style="fill:#D7D5D9;" width="43.94" height="24.669"/>
</g>
<g style="opacity:0.85;">
	<polygon style="fill:#3E3B43;" points="298.851,276.14 202.939,276.14 190.482,316.338 311.309,316.338  "/>
</g>
<g>
	<rect x="235.002" y="444.251" style="fill:#D7D5D9;" width="43.941" height="24.669"/>
	<path style="fill:#D7D5D9;" d="M379.758,504.398L379.758,504.398c0-33.606,27.496-61.102,61.102-61.102l0,0   c33.606,0,61.102,27.496,61.102,61.102l0,0H379.758z"/>
</g>
<path style="opacity:0.08;fill:#3E3B43;enable-background:new    ;" d="M440.86,443.296L440.86,443.296  c-20.472,0-38.661,10.214-49.764,25.785c10.871-9.908,25.301-15.97,41.079-15.97l0,0c30.266,0,55.565,22.306,60.297,51.287h9.49l0,0  C501.962,470.792,474.466,443.296,440.86,443.296z"/>
<path style="fill:#77757E;" d="M411.797,287.165H89.995c-16.051,0-29.064-13.013-29.064-29.064V36.673  c0-16.051,13.012-29.064,29.064-29.064h321.801c16.051,0,29.064,13.013,29.064,29.064v221.428  C440.86,274.153,427.848,287.165,411.797,287.165z"/>
<rect x="60.933" y="52.224" style="fill:#DFDFE2;" width="379.932" height="188.851"/>
<rect x="99.966" y="101.294" style="fill:#FF3F62;" width="137.55" height="90.71"/>
<g>
	<rect x="265.022" y="101.294" style="fill:#4675CF;" width="137.55" height="29.74"/>
	<rect x="265.022" y="162.257" style="fill:#4675CF;" width="137.55" height="29.74"/>
</g>
<polygon style="opacity:0.42;fill:#FFFFFF;enable-background:new    ;" points="253.769,240.621 151.551,240.621 273.214,51.772   375.432,51.772 "/>
<g>
	<rect x="136.769" y="391.997" style="fill:#77757E;" width="238.662" height="17.101"/>
	<rect x="23.825" y="456.58" style="fill:#77757E;" width="43.94" height="12.335"/>
	<rect x="94.218" y="456.58" style="fill:#77757E;" width="43.94" height="12.335"/>
	<rect x="164.61" y="456.58" style="fill:#77757E;" width="43.94" height="12.335"/>
	<rect x="235.002" y="456.58" style="fill:#77757E;" width="43.941" height="12.335"/>
</g>
<g>
	<rect x="7.603" y="492.065" style="fill:#ACAAB1;" width="296.046" height="12.335"/>
	<path style="fill:#ACAAB1;" d="M381.724,489.056c-1.281,4.907-1.966,10.048-1.966,15.342l0,0h122.204l0,0   c0-5.293-0.685-10.435-1.966-15.342H381.724z"/>
</g>
<path style="opacity:0.08;fill:#3E3B43;enable-background:new    ;" d="M411.797,7.609h-38.29c16.051,0,29.064,13.013,29.064,29.064  v221.429c0,16.051-13.012,29.063-29.064,29.063h38.29c16.051,0,29.064-13.012,29.064-29.063V36.673  C440.86,20.622,427.848,7.609,411.797,7.609z"/>
<g>
	<path style="fill:#231F20;" d="M89.997,294.766h101.907l-27.658,72.525H136.77c-4.199,0-7.604,3.405-7.604,7.604v34.2   c0,4.199,3.405,7.604,7.604,7.604h238.664c4.199,0,7.604-3.405,7.604-7.604v-34.2c0-4.199-3.405-7.604-7.604-7.604h-37.885   l-27.658-72.525h101.907c20.218,0,36.668-16.45,36.668-36.668V36.669c0-20.218-16.45-36.668-36.668-36.668H89.997   c-20.219,0.001-36.668,16.45-36.668,36.668v221.428C53.329,278.316,69.778,294.766,89.997,294.766z M433.258,233.46H68.537V59.819   h364.721V233.46z M367.83,401.492H144.374v-18.993h25.11h162.827h35.519v18.993H367.83z M321.272,367.291h-140.75l27.658-72.525   h85.436L321.272,367.291z M411.798,279.558H298.853h-95.912H89.997c-11.833,0-21.46-9.628-21.46-21.46v-9.429h364.721v9.429   C433.258,269.931,423.63,279.558,411.798,279.558z M89.997,15.21h321.801c11.833,0,21.46,9.627,21.46,21.46v7.942H68.537V36.67   C68.537,24.836,78.163,15.21,89.997,15.21z"/>
	<path style="fill:#231F20;" d="M99.967,199.598h137.547c4.199,0,7.604-3.405,7.604-7.604v-90.707c0-4.199-3.405-7.604-7.604-7.604   H99.967c-4.199,0-7.604,3.405-7.604,7.604v90.707C92.363,196.193,95.767,199.598,99.967,199.598z M107.571,108.891H229.91v75.499   H107.571V108.891z"/>
	<path style="fill:#231F20;" d="M265.024,138.631h137.548c4.199,0,7.604-3.405,7.604-7.604v-29.739c0-4.199-3.405-7.604-7.604-7.604   H265.024c-4.199,0-7.604,3.405-7.604,7.604v29.739C257.42,135.226,260.824,138.631,265.024,138.631z M272.628,108.891h122.34   v14.532h-122.34V108.891z"/>
	<path style="fill:#231F20;" d="M265.024,199.598h137.548c4.199,0,7.604-3.405,7.604-7.604v-29.739c0-4.199-3.405-7.604-7.604-7.604   H265.024c-4.199,0-7.604,3.405-7.604,7.604v29.739C257.42,196.193,260.824,199.598,265.024,199.598z M272.628,169.857h122.34   v14.532h-122.34V169.857z"/>
	<path style="fill:#231F20;" d="M303.653,461.307h-17.105v-17.065c0-4.199-3.405-7.604-7.604-7.604h-43.936   c-4.199,0-7.604,3.405-7.604,7.604v17.065h-11.249v-17.065c0-4.199-3.405-7.604-7.604-7.604h-43.937   c-4.199,0-7.604,3.405-7.604,7.604v17.065h-11.249v-17.065c0-4.199-3.405-7.604-7.604-7.604H94.22   c-4.199,0-7.604,3.405-7.604,7.604v17.065H75.367v-17.065c0-4.199-3.405-7.604-7.604-7.604H23.826   c-4.199,0-7.604,3.405-7.604,7.604v17.065H7.604c-4.199,0-7.604,3.405-7.604,7.604v35.484c0,4.199,3.405,7.604,7.604,7.604h296.049   c4.199,0,7.604-3.405,7.604-7.604v-35.484C311.257,464.712,307.853,461.307,303.653,461.307z M242.612,451.847h28.729v9.461   h-28.729L242.612,451.847L242.612,451.847z M172.218,451.847h28.73v9.461h-28.73V451.847z M101.824,451.847h28.729v9.461h-28.729   C101.824,461.308,101.824,451.847,101.824,451.847z M31.43,451.847h28.73v9.461H31.43V451.847z M296.049,496.791H15.208v-20.276   h8.618h43.937H94.22h43.936h26.457h43.937h26.457h43.936h17.105v20.276H296.049z"/>
	<path style="fill:#231F20;" d="M443.294,435.689c-37.885,0-68.706,30.821-68.706,68.706c0,4.199,3.405,7.604,7.604,7.604h122.204   c4.199,0,7.604-3.405,7.604-7.604C512,466.51,481.179,435.689,443.294,435.689z M390.335,496.791   c3.347-23.427,21.929-42.004,45.355-45.352v17.473c0,4.199,3.405,7.604,7.604,7.604c4.199,0,7.604-3.405,7.604-7.604v-17.473   c23.427,3.348,42.009,21.925,45.356,45.352L390.335,496.791L390.335,496.791z"/>
</g>
<g>
</g>
<g>
</g>
<g>
</g>
<g>
</g>
<g>
</g>
<g>
</g>
<g>
</g>
<g>
</g>
<g>
</g>
<g>
</g>
<g>
</g>
<g>
</g>
<g>
</g>
<g>
</g>
<g>
</g>
</svg>
