<?xml version="1.0" encoding="utf-8"?>
<!-- Generator: Adobe Illustrator 22.1.0, SVG Export Plug-In . SVG Version: 6.00 Build 0)  -->
<svg version="1.1" id="Layer_1" xmlns="http://www.w3.org/2000/svg" xmlns:xlink="http://www.w3.org/1999/xlink" x="0px" y="0px"
	 viewBox="0 0 256 256" style="enable-background:new 0 0 256 256;" xml:space="preserve">
<style type="text/css">
	.st0{fill:#D73735;}
	.st1{fill:#F85252;}
	.st2{fill:#EDAF85;}
	.st3{fill:#F7C09A;}
	.st4{fill:#D8D6D7;}
	.st5{fill:#FFFFFF;}
	.st6{fill:#1C868E;}
	.st7{fill:#40C4DF;}
	.st8{fill:#491352;}
	.st9{fill:#56C1B3;}
	.st10{fill:#7BEFE4;}
</style>
<g>
	<path class="st1" d="M246.5,235.439H9.5c-2.761,0-5-2.239-5-5V25.561c0-2.761,2.239-5,5-5h237c2.761,0,5,2.239,5,5v204.879
		C251.5,233.201,249.261,235.439,246.5,235.439z"/>
	<path class="st4" d="M251.5,55.74v174.7c0,2.76-2.24,5-5,5H9.5c-2.76,0-5-2.24-5-5V25.56c0-2.76,2.24-5,5-5h59.95l25.51,31.7
		c1.77,2.2,4.45,3.48,7.28,3.48H251.5z"/>
	<path class="st5" d="M251.5,55.74v174.7c0,2.761-2.239,5-5,5H24.73c-2.761,0-5-2.239-5-5V25.56c0-2.761,2.239-5,5-5h44.72
		l25.51,31.7c1.77,2.2,4.45,3.48,7.28,3.48H251.5z"/>
	<circle class="st7" cx="205.342" cy="38.457" r="6.896"/>
	<circle class="st7" cx="230.584" cy="38.457" r="6.896"/>
	<path class="st7" d="M77.422,223.667H21.578c-2.761,0-5-2.239-5-5V73.451c0-2.761,2.239-5,5-5h55.844c2.761,0,5,2.239,5,5v145.216
		C82.422,221.428,80.183,223.667,77.422,223.667z"/>
	<g>
		<path class="st4" d="M155.922,138.003h-55.844c-2.761,0-5-2.239-5-5V73.451c0-2.761,2.239-5,5-5h55.844c2.761,0,5,2.239,5,5
			v59.552C160.922,135.765,158.683,138.003,155.922,138.003z"/>
		<path class="st4" d="M234.422,138.003h-55.844c-2.761,0-5-2.239-5-5V73.451c0-2.761,2.239-5,5-5h55.844c2.761,0,5,2.239,5,5
			v59.552C239.422,135.765,237.183,138.003,234.422,138.003z"/>
	</g>
	<g>
		<circle class="st4" cx="108.317" cy="187.214" r="13.683"/>
		<circle class="st4" cx="147.606" cy="187.214" r="13.683"/>
		<circle class="st4" cx="186.894" cy="187.214" r="13.683"/>
		<circle class="st4" cx="226.183" cy="187.214" r="13.683"/>
	</g>
	<path class="st7" d="M184.344,188.362l9.923,37.034c0.996,3.718,5.644,4.963,8.365,2.241l27.111-27.111
		c2.722-2.722,1.476-7.369-2.241-8.365l-37.034-9.923C186.75,181.242,183.348,184.644,184.344,188.362z"/>
	<path class="st6" d="M230.367,220.006l-8.255,8.255c-1.953,1.953-5.118,1.953-7.071,0l-6.516-6.516l15.326-15.326l6.516,6.516
		C232.319,214.888,232.319,218.053,230.367,220.006z"/>
	<g>
		<path class="st8" d="M246.5,18.56c-9.417,0-227.386,0-236.78,0H9.5c-3.86,0-7,3.14-7,7v0.22V230.22v0.22c0,3.86,3.14,7,7,7h0.22
			H246.28h0.22c3.86,0,7-3.14,7-7v-0.22c0-5.747,0-180.829,0-204.66C253.5,21.7,250.36,18.56,246.5,18.56z M249.5,230.22
			c0,1.775-1.444,3.22-3.22,3.22H9.72c-1.775,0-3.22-1.445-3.22-3.22V25.78c0-1.775,1.444-3.22,3.22-3.22h58.773l24.909,30.954
			c2.161,2.686,5.382,4.227,8.838,4.227H249.5V230.22z M249.5,53.74H102.24c-2.238,0-4.324-0.997-5.722-2.734L73.627,22.56H246.5
			c1.654,0,3,1.346,3,3V53.74z"/>
		<path class="st8" d="M24.217,41.618H58.76c1.104,0,2-0.896,2-2s-0.896-2-2-2H24.217c-1.104,0-2,0.896-2,2
			S23.112,41.618,24.217,41.618z"/>
		<path class="st8" d="M205.342,29.561c-4.906,0-8.896,3.991-8.896,8.896c0,4.905,3.991,8.896,8.896,8.896s8.896-3.991,8.896-8.896
			C214.239,33.552,210.248,29.561,205.342,29.561z M205.342,43.354c-2.7,0-4.896-2.196-4.896-4.896s2.197-4.896,4.896-4.896
			s4.896,2.197,4.896,4.896S208.042,43.354,205.342,43.354z"/>
		<path class="st8" d="M230.584,29.561c-4.906,0-8.896,3.991-8.896,8.896c0,4.905,3.991,8.896,8.896,8.896s8.896-3.991,8.896-8.896
			C239.481,33.552,235.49,29.561,230.584,29.561z M230.584,43.354c-2.7,0-4.896-2.196-4.896-4.896s2.197-4.896,4.896-4.896
			s4.896,2.197,4.896,4.896S233.284,43.354,230.584,43.354z"/>
		<path class="st8" d="M77.422,66.451H21.578c-3.86,0-7,3.14-7,7v145.215c0,3.86,3.14,7,7,7h55.844c3.86,0,7-3.14,7-7V73.451
			C84.422,69.591,81.282,66.451,77.422,66.451z M80.422,218.667c0,1.654-1.346,3-3,3H21.578c-1.654,0-3-1.346-3-3V73.451
			c0-1.654,1.346-3,3-3h55.844c1.654,0,3,1.346,3,3V218.667z"/>
		<path class="st8" d="M93.078,73.451v59.552c0,3.86,3.14,7,7,7h55.844c3.86,0,7-3.14,7-7V73.451c0-3.86-3.14-7-7-7h-55.844
			C96.218,66.451,93.078,69.591,93.078,73.451z M158.922,73.451v59.552c0,1.654-1.346,3-3,3h-55.844c-1.654,0-3-1.346-3-3V73.451
			c0-1.654,1.346-3,3-3h55.844C157.576,70.451,158.922,71.797,158.922,73.451z"/>
		<path class="st8" d="M178.578,140.003h55.844c3.86,0,7-3.14,7-7V73.451c0-3.86-3.14-7-7-7h-55.844c-3.86,0-7,3.14-7,7v59.552
			C171.578,136.863,174.718,140.003,178.578,140.003z M175.578,73.451c0-1.654,1.346-3,3-3h55.844c1.654,0,3,1.346,3,3v59.552
			c0,1.654-1.346,3-3,3h-55.844c-1.654,0-3-1.346-3-3V73.451z"/>
		<path class="st8" d="M96.833,151h62.333c1.104,0,2-0.896,2-2s-0.896-2-2-2H96.833c-1.104,0-2,0.896-2,2S95.729,151,96.833,151z"/>
		<path class="st8" d="M96.833,161.667h62.333c1.104,0,2-0.896,2-2s-0.896-2-2-2H96.833c-1.104,0-2,0.896-2,2
			S95.729,161.667,96.833,161.667z"/>
		<path class="st8" d="M237.667,147h-62.333c-1.104,0-2,0.896-2,2s0.896,2,2,2h62.333c1.104,0,2-0.896,2-2S238.771,147,237.667,147z
			"/>
		<path class="st8" d="M237.667,157.667h-62.333c-1.104,0-2,0.896-2,2s0.896,2,2,2h62.333c1.104,0,2-0.896,2-2
			S238.771,157.667,237.667,157.667z"/>
		<path class="st8" d="M108.317,202.897c8.647,0,15.683-7.036,15.683-15.683s-7.036-15.683-15.683-15.683
			s-15.683,7.036-15.683,15.683S99.669,202.897,108.317,202.897z M108.317,175.531c6.442,0,11.683,5.241,11.683,11.683
			s-5.241,11.683-11.683,11.683s-11.683-5.241-11.683-11.683S101.875,175.531,108.317,175.531z"/>
		<path class="st8" d="M147.605,171.531c-8.647,0-15.683,7.036-15.683,15.683s7.035,15.683,15.683,15.683
			s15.683-7.036,15.683-15.683S156.253,171.531,147.605,171.531z M147.605,198.897c-6.442,0-11.683-5.241-11.683-11.683
			s5.241-11.683,11.683-11.683s11.683,5.241,11.683,11.683S154.047,198.897,147.605,198.897z"/>
		<path class="st8" d="M186.157,202.863l1.892,7.057H96.83c-1.104,0-2,0.896-2,2s0.896,2,2,2h92.291l1.719,6.41H96.83
			c-1.104,0-2,0.896-2,2s0.896,2,2,2h95.082l0.425,1.585c1.386,5.193,7.892,6.955,11.707,3.139l4.481-4.481
			c5.209,5.209,6.43,7.149,10.051,7.149c3.652,0,4.858-1.956,10.294-7.392H241c2.642,0,2.646-4,0-4h-8.328
			c1.272-1.917,1.496-4.313,0.676-6.41H241c2.642,0,2.646-4,0-4h-10.82l-3.501-3.501l4.273-4.273
			c6.454-2.064,10.918-8.116,10.918-14.936c0-8.646-7.039-15.68-15.69-15.68c-8.088,0-14.762,6.155-15.591,14.027l-8.514-2.28
			c-1.765-6.879-7.953-11.747-15.185-11.747c-8.646,0-15.68,7.034-15.68,15.68C171.21,195.614,177.852,202.476,186.157,202.863z
			 M228.953,214.349c1.169,1.17,1.169,3.073,0,4.243c-11.681,11.682-9.133,11.621-17.599,3.153l12.497-12.497L228.953,214.349z
			 M226.18,175.53c6.446,0,11.69,5.239,11.69,11.68c0,3.743-1.802,7.18-4.672,9.346c-0.196-2.973-2.203-5.531-5.18-6.328
			l-13.503-3.62C214.829,180.447,219.941,175.53,226.18,175.53z M226.983,194.092c2.238,0.599,2.932,3.325,1.418,4.939
			c-0.009,0.01-0.015,0.022-0.025,0.032c-0.016,0.019-0.035,0.032-0.051,0.052c-5.424,5.424-21.779,21.779-27.11,27.11
			c-1.634,1.635-4.421,0.878-5.014-1.342c-10.672-39.809-10.844-38.249-9.148-39.94
			C188.738,183.262,187.177,183.421,226.983,194.092z M186.89,175.53c4.553,0,8.545,2.592,10.469,6.484l-6.37-1.706
			c-5.207-1.403-9.968,3.356-8.582,8.569l2.644,9.863c-5.568-0.887-9.842-5.712-9.842-11.531
			C175.21,180.77,180.45,175.53,186.89,175.53z"/>
	</g>
</g>
</svg>
