<?xml version="1.0" encoding="iso-8859-1"?>
<!-- Generator: Adobe Illustrator 19.0.0, SVG Export Plug-In . SVG Version: 6.00 Build 0)  -->
<svg xmlns="http://www.w3.org/2000/svg" xmlns:xlink="http://www.w3.org/1999/xlink" version="1.1" id="Layer_1" x="0px" y="0px" viewBox="0 0 512 512" style="enable-background:new 0 0 512 512;" xml:space="preserve">
<path style="fill:#F23488;" d="M503.496,185.053c0,61.1-33.223,114.434-82.585,142.928c0-0.34,0-0.694,0-1.034  c0-61.087-33.211-114.421-82.572-142.928c-0.379-60.558-33.387-113.374-82.333-141.743c24.283-14.084,52.489-22.14,82.585-22.14  C429.661,20.135,503.496,93.97,503.496,185.053z"/>
<path style="fill:#7453DB;" d="M420.911,326.947c0,0.34,0,0.694,0,1.034c-24.221,13.983-52.337,21.988-82.319,21.988  c-30.096,0-58.301-8.056-82.585-22.14c49.223-28.533,82.333-81.79,82.333-142.777c0-0.34,0-0.694,0-1.034  C387.7,212.526,420.911,265.86,420.911,326.947z"/>
<path style="fill:#23CE9E;" d="M420.911,327.981c-0.554,90.604-74.175,163.884-164.904,163.884  c-90.742,0-164.362-73.28-164.918-163.884c24.234,13.983,52.35,21.988,82.333,21.988c30.096,0,58.301-8.056,82.585-22.14  c24.283,14.084,52.489,22.14,82.585,22.14C368.574,349.97,396.691,341.963,420.911,327.981z"/>
<path style="fill:#7A8280;" d="M256.007,162.029c29.982,0,58.099,8.006,82.333,21.988c0,0.34,0,0.694,0,1.034  c0,60.986-33.11,114.244-82.333,142.777c-49.223-28.533-82.333-81.79-82.333-142.777c0-0.34,0-0.694,0-1.034  C197.907,170.036,226.024,162.029,256.007,162.029z"/>
<path style="fill:#50A092;" d="M338.339,184.019c-24.234-13.983-52.35-21.988-82.333-21.988c-29.984,0-58.1,8.006-82.333,21.988  c0.379-60.558,33.387-113.374,82.333-141.743C304.952,70.644,337.961,123.461,338.339,184.019z"/>
<path style="fill:#8FCC51;" d="M256.007,42.275c-48.946,28.369-81.954,81.186-82.333,141.743  c-49.362,28.495-82.585,81.828-82.585,142.928c0,0.34,0,0.694,0,1.034C41.727,299.486,8.504,246.153,8.504,185.053  c0-91.083,73.835-164.918,164.918-164.918C203.518,20.135,231.723,28.191,256.007,42.275z"/>
<path style="fill:#EA9B22;" d="M173.674,185.053c0,60.986,33.11,114.244,82.333,142.777c-24.283,14.084-52.489,22.14-82.585,22.14  c-29.982,0-58.1-8.006-82.333-21.988c0-0.34,0-0.694,0-1.034c0-61.1,33.223-114.434,82.585-142.928  C173.674,184.359,173.674,184.712,173.674,185.053z"/>
<circle style="fill:#E4EAEA;" cx="257.337" cy="232.493" r="40.514"/>
<path d="M512,185.052c0-43.253-16.016-84.684-45.097-116.657c-28.881-31.752-68.207-51.6-110.735-55.884  c-4.681-0.463-8.843,2.936-9.314,7.608c-0.471,4.674,2.936,8.843,7.61,9.314c38.343,3.862,73.805,21.763,99.856,50.406  c26.227,28.835,40.672,66.2,40.672,105.213c0,50.89-25.04,98.615-66.182,127.759c-4.513-54.726-34.986-104.688-82.077-133.671  c-0.99-29.068-9.248-57.461-24.032-82.4c-12.583-21.225-29.621-39.556-49.753-53.695c15.127-7.021,31.194-11.531,47.942-13.415  c4.667-0.525,8.025-4.735,7.5-9.402c-0.525-4.667-4.729-8.02-9.402-7.5c-22.242,2.504-43.408,9.165-62.99,19.807  c-25.231-13.683-53.669-20.902-82.576-20.902C77.796,11.631,0,89.427,0,185.052c0,4.873,0.205,9.797,0.609,14.633  c0.391,4.681,4.497,8.156,9.183,7.767c4.681-0.391,8.157-4.503,7.767-9.183c-0.366-4.367-0.551-8.814-0.551-13.217  c0-86.246,70.166-156.413,156.414-156.413c22.749,0,45.171,4.961,65.629,14.415c-20.127,14.139-37.158,32.464-49.738,53.684  c-14.777,24.925-23.034,53.301-24.032,82.398c-47.097,28.975-77.576,78.938-82.09,133.672c-29.788-21.13-51.705-52.429-61.022-87.75  c-1.197-4.541-5.852-7.251-10.392-6.054c-4.541,1.197-7.252,5.851-6.054,10.392c11.28,42.767,39.205,80.217,76.963,103.465  c1.476,44.282,19.49,85.694,51.047,117.066c32.714,32.526,76.139,50.439,122.274,50.439c23.211,0,45.747-4.512,66.98-13.413  c4.331-1.815,6.371-6.799,4.556-11.13c-1.815-4.331-6.799-6.374-11.13-4.556c-19.141,8.022-39.465,12.091-60.406,12.091  c-41.612,0-80.777-16.156-110.284-45.492c-26.068-25.917-41.884-59.431-45.384-95.533c22.787,10.581,47.764,16.139,73.083,16.139  c28.91,0,57.352-7.223,82.585-20.908c25.233,13.686,53.675,20.908,82.585,20.908c25.319,0,50.289-5.556,73.064-16.133  c-4.618,47.153-30.315,89.74-70.603,115.897c-3.939,2.558-5.059,7.824-2.503,11.764c2.558,3.94,7.825,5.058,11.764,2.503  c47.805-31.037,77.074-82.947,78.996-139.645C480.434,301.404,512,245.223,512,185.052z M203.943,105.413  c12.821-21.627,30.755-39.938,52.064-53.216c21.308,13.277,39.243,31.589,52.064,53.216c11.622,19.605,18.765,41.582,20.999,64.242  c-22.781-10.575-47.75-16.13-73.062-16.13c-25.31,0-50.279,5.554-73.06,16.128C185.184,146.976,192.326,125.009,203.943,105.413z   M99.659,323.012c1.254-49.404,26.035-95.428,66.109-123.82c2.122,26.012,10.049,51.256,23.286,73.735  c12.608,21.409,29.73,39.886,49.998,54.123c-20.458,9.454-42.879,14.415-65.63,14.415  C147.637,341.465,122.243,335.098,99.659,323.012z M272.98,327.058c13.863-9.721,26.194-21.378,36.768-34.806  c2.906-3.69,2.269-9.037-1.42-11.943c-3.691-2.905-9.036-2.269-11.943,1.42c-11.336,14.396-24.907,26.541-40.382,36.171  c-44.548-27.767-72.426-76.461-73.759-128.914c22.585-12.084,47.978-18.453,73.763-18.453c25.788,0,51.187,6.37,73.771,18.458  c-0.573,23.67-6.303,46.296-17.073,67.304c-2.143,4.18-0.491,9.305,3.689,11.448c1.242,0.636,2.567,0.938,3.873,0.938  c3.089,0,6.069-1.688,7.574-4.626c10.452-20.391,16.619-42.147,18.428-64.843c40.054,28.399,64.82,74.414,66.073,123.801  c-22.572,12.084-47.963,18.452-73.749,18.452C315.848,341.465,293.432,336.508,272.98,327.058z"/>
<path d="M257.332,183.476c-27.029,0-49.018,21.99-49.018,49.018s21.99,49.018,49.018,49.018c27.029,0,49.018-21.99,49.018-49.018  S284.361,183.476,257.332,183.476z M257.332,264.505c-17.65,0-32.01-14.36-32.01-32.01s14.36-32.01,32.01-32.01  c17.65,0,32.01,14.36,32.01,32.01S274.982,264.505,257.332,264.505z"/>
<g>
</g>
<g>
</g>
<g>
</g>
<g>
</g>
<g>
</g>
<g>
</g>
<g>
</g>
<g>
</g>
<g>
</g>
<g>
</g>
<g>
</g>
<g>
</g>
<g>
</g>
<g>
</g>
<g>
</g>
</svg>
