<svg xmlns="http://www.w3.org/2000/svg" viewBox="0 0 48 48"><defs><style>.cls-1{fill:#dad7e5;}.cls-2{fill:#edebf2;}.cls-3{fill:#fc6;}.cls-4{fill:#ffde76;}.cls-5{fill:#9dcc6b;}.cls-6{fill:#b5e08c;}.cls-7{fill:#db5669;}.cls-8{fill:#f26674;}</style></defs><title>Layout</title><g id="Layout"><rect class="cls-1" x="1" y="1" width="46" height="46"/><path class="cls-2" d="M47,1V45h0A43,43,0,0,1,4,2V1Z"/><rect class="cls-3" x="5" y="5" width="22" height="12"/><path class="cls-4" d="M27,5V15H18A10,10,0,0,1,8,5H27Z"/><rect class="cls-5" x="31" y="5" width="12" height="12"/><path class="cls-6" d="M43,5V15h0a9,9,0,0,1-9-9V5Z"/><rect class="cls-5" x="5" y="21" width="10" height="22"/><path class="cls-6" d="M15,21V41h0a7,7,0,0,1-7-7V21Z"/><rect class="cls-7" x="19" y="21" width="24" height="9"/><rect class="cls-3" x="19" y="34" width="24" height="9"/><path class="cls-4" d="M43,34v7H29a7,7,0,0,1-7-7H43Z"/><path class="cls-8" d="M43,21v7H29a7,7,0,0,1-7-7H43Z"/></g></svg>