<svg xmlns="http://www.w3.org/2000/svg" width="47.992" height="48" viewBox="0 0 47.992 48">
  <g>
    <path d="M44.922,5.5,42.5,3.078a10.536,10.536,0,0,0-14.884,0L22.437,8.254a.728.728,0,0,0,.286,1.205l6.148,2.035a.723.723,0,0,0,.742-.176l2.8-2.8a3.839,3.839,0,0,1,5.279,0l1.791,1.791a3.745,3.745,0,0,1,0,5.278L29.1,25.969a3.712,3.712,0,0,1-1.665.955,3.751,3.751,0,0,1-3.614-.955L22.8,24.942c-.01-.012-.066-.078-.078-.09a.73.73,0,0,0-.519-.23.659.659,0,0,0-.525.215l-4.1,4.1a.729.729,0,0,0,0,1.03l1.443,1.441a10.4,10.4,0,0,0,3.713,2.387,10.618,10.618,0,0,0,3.734.68,10.511,10.511,0,0,0,5.966-1.852,10.349,10.349,0,0,0,1.472-1.215L44.921,20.39a10.556,10.556,0,0,0,0-14.886ZM43.9,19.36,32.879,30.378a9.113,9.113,0,0,1-12.829,0l-.929-.93,3.064-3.063L22.8,27a5.208,5.208,0,0,0,7.334,0L40.514,16.613a5.192,5.192,0,0,0,0-7.334L38.723,7.486a5.2,5.2,0,0,0-7.335,0L28.9,9.972,24.3,8.449l4.342-4.342a9.08,9.08,0,0,1,12.828,0l2.425,2.424a9.1,9.1,0,0,1,0,12.829Z" fill="#1a171b"/>
    <path d="M25.278,38.543,19.13,36.508a.724.724,0,0,0-.742.176l-2.8,2.8a3.839,3.839,0,0,1-5.279,0L8.516,37.7a3.747,3.747,0,0,1,0-5.28L18.9,22.035a3.7,3.7,0,0,1,1.664-.957,3.749,3.749,0,0,1,3.615.955l1.029,1.033.07.08a.729.729,0,0,0,.519.234.8.8,0,0,0,.528-.215l4.1-4.1a.725.725,0,0,0,0-1.027L28.98,16.6a10.381,10.381,0,0,0-3.712-2.387,10.559,10.559,0,0,0-9.7,1.17A10.27,10.27,0,0,0,14.1,16.6L3.078,27.613a10.537,10.537,0,0,0,0,14.885L5.5,44.924a10.542,10.542,0,0,0,14.885,0l5.175-5.178a.727.727,0,0,0-.284-1.2ZM19.36,43.9a9.082,9.082,0,0,1-12.829,0L4.107,41.471a9.08,9.08,0,0,1,0-12.828L15.124,17.625a8.89,8.89,0,0,1,1.269-1.047,9.119,9.119,0,0,1,8.364-1.006,8.937,8.937,0,0,1,3.2,2.053l.928.928-3.063,3.064-.612-.611a5.2,5.2,0,0,0-7.335,0L7.489,31.389a5.192,5.192,0,0,0,0,7.334L9.28,40.514a5.191,5.191,0,0,0,7.335,0L19.1,38.03l4.6,1.523Z" fill="#1a171b"/>
  </g>
</svg>
