<svg id="Layer_1" data-name="Layer 1" xmlns="http://www.w3.org/2000/svg" viewBox="0 0 128 128"><title>LIVE</title><path d="M24.192,71.75A7.75,7.75,0,1,0,16.442,64,7.759,7.759,0,0,0,24.192,71.75Zm0-12A4.25,4.25,0,1,1,19.942,64,4.255,4.255,0,0,1,24.192,59.75Z"/><path d="M121.5,42.346H6.5A1.75,1.75,0,0,0,4.75,44.1V83.9a1.75,1.75,0,0,0,1.75,1.75h115a1.75,1.75,0,0,0,1.75-1.75V44.1A1.75,1.75,0,0,0,121.5,42.346Zm-1.75,39.808H8.25V45.846h111.5Z"/><polygon points="58.131 70.203 46.836 70.203 46.836 51.869 42.868 51.869 42.868 73.851 58.131 73.851 58.131 70.203"/><rect x="61.428" y="51.869" width="3.968" height="21.982"/><polygon points="82.002 73.851 91.186 51.869 86.738 51.869 79.763 68.54 72.787 51.869 68.371 51.869 77.555 73.851 82.002 73.851"/><polygon points="110.642 70.203 98.099 70.203 98.099 64.476 109.458 64.476 109.458 60.828 98.099 60.828 98.099 55.517 110.642 55.517 110.642 51.869 94.099 51.869 94.099 73.851 110.642 73.851 110.642 70.203"/></svg>