<?xml version="1.0" encoding="iso-8859-1"?>
<!-- Generator: Adobe Illustrator 24.0.3, SVG Export Plug-In . SVG Version: 6.00 Build 0)  -->
<svg version="1.1" xmlns="http://www.w3.org/2000/svg" xmlns:xlink="http://www.w3.org/1999/xlink" x="0px" y="0px"
	 viewBox="0 0 64 64" style="enable-background:new 0 0 64 64;" xml:space="preserve">
<g id="live-streaming-01">
	<path style="fill:#605491;" d="M57.931,54.658l-2.216-1.289c3.743-6.432,5.721-13.821,5.721-21.368s-1.979-14.936-5.721-21.368
		l2.216-1.289C61.901,16.166,64,24.001,64,32C64,39.999,61.901,47.834,57.931,54.658z M6.069,54.658C2.099,47.833,0,39.998,0,32
		S2.099,16.167,6.069,9.342l2.216,1.289C4.542,17.065,2.564,24.454,2.564,32s1.979,14.935,5.721,21.368L6.069,54.658z
		 M51.389,49.763l-2.215-1.292c2.897-4.963,4.428-10.659,4.428-16.471c0-5.8-1.525-11.497-4.41-16.474l2.218-1.286
		c3.111,5.367,4.755,11.508,4.755,17.759C56.166,38.265,54.514,44.408,51.389,49.763z M12.611,49.763
		C9.486,44.408,7.834,38.265,7.834,32c0-6.252,1.644-12.393,4.756-17.759l2.218,1.286c-2.886,4.976-4.41,10.673-4.41,16.474
		c0,5.812,1.531,11.508,4.428,16.471L12.611,49.763z M44.889,44.863l-2.218-1.284c2.027-3.5,3.098-7.504,3.098-11.579
		c0-4.076-1.071-8.079-3.098-11.578l2.218-1.284c2.253,3.889,3.443,8.336,3.443,12.862C48.333,36.525,47.142,40.973,44.889,44.863z
		 M19.111,44.863c-2.253-3.89-3.443-8.338-3.443-12.863c0-4.526,1.191-8.973,3.443-12.862l2.218,1.284
		c-2.027,3.499-3.098,7.503-3.098,11.578c0,4.075,1.071,8.079,3.098,11.579L19.111,44.863z M31.726,40.551
		c-4.716,0-8.553-3.837-8.553-8.553s3.837-8.552,8.553-8.552s8.552,3.836,8.552,8.552S36.442,40.551,31.726,40.551z M31.726,26.01
		c-3.302,0-5.989,2.687-5.989,5.988c0,3.302,2.687,5.989,5.989,5.989c3.302,0,5.988-2.687,5.988-5.989
		C37.714,28.697,35.028,26.01,31.726,26.01z"/>
	<circle style="fill:#D4C3F7;" cx="31.728" cy="31.997" r="5.987"/>
</g>
<g id="Layer_1">
</g>
</svg>
