<?xml version="1.0" encoding="iso-8859-1"?>
<!-- Generator: Adobe Illustrator 24.0.3, SVG Export Plug-In . SVG Version: 6.00 Build 0)  -->
<svg version="1.1" xmlns="http://www.w3.org/2000/svg" xmlns:xlink="http://www.w3.org/1999/xlink" x="0px" y="0px"
	 viewBox="0 0 64 64" style="enable-background:new 0 0 64 64;" xml:space="preserve">
<g id="cloud-connection">
	<path style="fill:#605491;" d="M42.893,8.576l0.286,1.89c9.069-1.365,17.566,4.907,18.931,13.986L64,24.166
		C62.482,14.046,53.002,7.058,42.893,8.576z M54.062,15.536c-3.045-2.243-6.768-3.169-10.511-2.606l0.286,1.89
		c3.227-0.487,6.463,0.315,9.088,2.253c2.635,1.948,4.353,4.792,4.84,8.029l1.89-0.286C59.093,21.082,57.107,17.789,54.062,15.536z
		 M51.446,19.077c-2.091-1.547-4.668-2.186-7.246-1.795l0.286,1.89c2.072-0.315,4.143,0.2,5.833,1.442
		c1.68,1.241,2.778,3.074,3.093,5.146l1.89-0.286C54.912,22.896,53.547,20.624,51.446,19.077z M45.174,26.791
		c-1.537,0-3.055,0.248-4.515,0.735c-3.15-4.907-8.611-7.924-14.453-7.924c-9.461,0-17.165,7.695-17.165,17.165v0.191
		C4.029,37.111,0,41.244,0,46.295c0,5.146,4.191,9.336,9.346,9.336h35.828c7.952,0,14.415-6.463,14.415-14.415
		C59.59,33.263,53.126,26.791,45.174,26.791z M45.174,53.722H9.346c-4.105,0-7.437-3.332-7.437-7.427
		c0-4.105,3.332-7.437,7.437-7.437c0.21,0,0.42,0.019,0.63,0.038c0.277,0.029,0.554-0.076,0.745-0.277
		c0.2-0.191,0.305-0.468,0.286-0.745l-0.01-0.096c-0.029-0.344-0.048-0.678-0.048-1.012c0-8.42,6.845-15.255,15.255-15.255
		c5.432,0,10.492,2.931,13.212,7.656c0.239,0.41,0.735,0.582,1.174,0.41c1.48-0.582,3.017-0.878,4.582-0.878
		c6.893,0,12.506,5.613,12.506,12.516C57.68,48.108,52.067,53.722,45.174,53.722z"/>
	<path style="fill:#D4C3F7;" d="M57.68,41.216c0,6.893-5.613,12.506-12.506,12.506H9.346c-4.105,0-7.437-3.332-7.437-7.427
		c0-4.105,3.332-7.437,7.437-7.437c0.21,0,0.42,0.019,0.63,0.038c0.277,0.029,0.554-0.076,0.745-0.277
		c0.2-0.191,0.305-0.468,0.286-0.745l-0.01-0.096c-0.029-0.344-0.048-0.678-0.048-1.012c0-8.42,6.845-15.255,15.255-15.255
		c5.432,0,10.492,2.931,13.212,7.656c0.239,0.41,0.735,0.582,1.174,0.41c1.48-0.582,3.017-0.878,4.582-0.878
		C52.067,28.7,57.68,34.314,57.68,41.216z"/>
</g>
<g id="Layer_1">
</g>
</svg>
