<?xml version="1.0" encoding="iso-8859-1"?>
<!-- Generator: Adobe Illustrator 24.0.3, SVG Export Plug-In . SVG Version: 6.00 Build 0)  -->
<svg version="1.1" xmlns="http://www.w3.org/2000/svg" xmlns:xlink="http://www.w3.org/1999/xlink" x="0px" y="0px"
	 viewBox="0 0 64 64" style="enable-background:new 0 0 64 64;" xml:space="preserve">
<g id="live-streaming-04">
	<path style="fill:#605491;" d="M33.272,41.094c11.33,0,20.547-9.218,20.547-20.547S44.601,0,33.272,0
		C21.941,0,12.723,9.218,12.723,20.547S21.941,41.094,33.272,41.094z M33.272,2.472c9.967,0,18.075,8.108,18.075,18.075
		s-8.108,18.075-18.075,18.075s-18.077-8.108-18.077-18.075S23.304,2.472,33.272,2.472z M27.554,29.325
		c0.194,0.116,0.413,0.174,0.631,0.174c0.203,0,0.407-0.05,0.59-0.15l14.183-7.716c0.398-0.217,0.646-0.633,0.646-1.086
		s-0.247-0.869-0.646-1.086l-14.183-7.716c-0.381-0.208-0.846-0.2-1.221,0.024c-0.375,0.223-0.605,0.626-0.605,1.062v15.432
		C26.949,28.699,27.179,29.103,27.554,29.325z M29.421,14.911l10.361,5.636l-10.361,5.636V14.911z M10.755,61.517h8.124V64H7.644
		V46.103h3.11V61.517z M21.448,46.103h3.097V64h-3.097V46.103z M39.222,46.103h3.417L36.197,64h-3.011L26.77,46.103h3.405l4.5,14
		L39.222,46.103z M56.356,61.517V64H44.654V46.103H56.27v2.507h-8.505v4.941h7.35v2.459h-7.35v5.507H56.356z"/>
	<path style="fill:#D4C3F7;" d="M33.273,2.471c-9.974,0-18.082,8.108-18.082,18.082c0,9.962,8.108,18.069,18.082,18.069
		c9.962,0,18.069-8.108,18.069-18.069C51.343,10.578,43.235,2.471,33.273,2.471z M42.963,21.627l-14.188,7.725
		c-0.185,0.099-0.383,0.148-0.593,0.148c-0.21,0-0.433-0.062-0.63-0.173c-0.371-0.222-0.606-0.63-0.606-1.063V12.828
		c0-0.433,0.235-0.84,0.606-1.063c0.383-0.222,0.84-0.222,1.224-0.025l14.188,7.725c0.396,0.21,0.643,0.63,0.643,1.088
		C43.606,20.997,43.359,21.417,42.963,21.627z"/>
</g>
<g id="Layer_1">
</g>
</svg>
