<?xml version="1.0" encoding="iso-8859-1"?>
<!-- Generator: Adobe Illustrator 19.0.0, SVG Export Plug-In . SVG Version: 6.00 Build 0)  -->
<svg xmlns="http://www.w3.org/2000/svg" xmlns:xlink="http://www.w3.org/1999/xlink" version="1.1" id="Layer_1" x="0px" y="0px" viewBox="0 0 512 512" style="enable-background:new 0 0 512 512;" xml:space="preserve">
<circle style="fill:#FF507D;" cx="229.46" cy="282.54" r="221.166"/>
<path style="fill:#D23C69;" d="M448.349,251.002c-0.84-5.881-1.931-11.676-3.225-17.398l-217.273,40.236  c-4.813,0.89-7.983,5.504-7.093,10.306c0.786,4.267,4.51,7.24,8.691,7.24c0.535,0,1.072-0.043,1.616-0.147L448.349,251.002z"/>
<circle style="fill:#FFFFFF;" cx="229.46" cy="282.54" r="168.086"/>
<path style="fill:#E4EAF8;" d="M395.968,260.702c-0.767-5.906-1.85-11.702-3.215-17.399l-164.9,30.538  c-4.813,0.89-7.983,5.504-7.093,10.306c0.786,4.267,4.51,7.24,8.691,7.24c0.535,0,1.072-0.043,1.616-0.147L395.968,260.702z"/>
<circle style="fill:#FF507D;" cx="229.46" cy="282.54" r="115.006"/>
<path style="fill:#D23C69;" d="M343.807,270.361c-0.626-5.956-1.818-11.731-3.319-17.38l-112.636,20.858  c-4.813,0.89-7.983,5.504-7.093,10.306c0.786,4.267,4.51,7.24,8.691,7.24c0.535,0,1.072-0.043,1.616-0.147L343.807,270.361z"/>
<circle style="fill:#FFFFFF;" cx="229.46" cy="282.54" r="61.927"/>
<polygon style="fill:#FF507D;" points="468.32,8.294 468.32,43.68 503.706,43.68 450.626,96.76 415.24,96.76 415.24,61.374 "/>
<polygon style="fill:#D23C69;" points="415.241,61.374 415.24,61.375 415.24,96.76 468.32,43.68 468.32,8.294 "/>
<path style="fill:#E4EAF8;" d="M291.264,280.093c-0.239-6.068-1.325-11.908-3.187-17.405l-60.224,11.152  c-4.813,0.89-7.983,5.504-7.093,10.306c0.786,4.267,4.51,7.24,8.691,7.24c0.535,0,1.072-0.043,1.616-0.147L291.264,280.093z"/>
<path d="M328.742,146.64c2.52-3.824,1.462-8.968-2.362-11.488c-28.789-18.966-62.303-28.992-96.92-28.992  c-97.257,0-176.38,79.123-176.38,176.38c0,40.514,14.078,80.084,39.643,111.42c1.639,2.009,4.025,3.051,6.432,3.051  c1.843,0,3.698-0.612,5.237-1.867c3.55-2.895,4.079-8.12,1.184-11.669C82.42,355.09,69.667,319.245,69.667,282.54  c0-88.11,71.682-159.793,159.793-159.793c31.364,0,61.722,9.079,87.793,26.256C321.078,151.523,326.22,150.465,328.742,146.64z"/>
<path d="M267.375,165.181c-4.359-1.407-9.034,0.985-10.44,5.344c-1.407,4.359,0.985,9.034,5.344,10.44  c5.635,1.819,11.161,4.132,16.424,6.875c1.224,0.638,2.535,0.94,3.825,0.94c2.993,0,5.883-1.626,7.363-4.463  c2.117-4.063,0.54-9.071-3.523-11.188C280.282,169.96,273.892,167.286,267.375,165.181z"/>
<path d="M450.626,105.054c2.2,0,4.309-0.874,5.864-2.43l53.08-53.08c2.372-2.372,3.082-5.939,1.798-9.038  c-1.284-3.1-4.308-5.12-7.662-5.12h-27.093V8.294c0-3.355-2.02-6.378-5.12-7.662c-3.097-1.283-6.666-0.574-9.038,1.798l-53.08,53.08  c-1.556,1.555-2.43,3.665-2.43,5.864v31.952l-183.35,183.35c-3.239,3.239-3.239,8.491,0,11.728c1.619,1.619,3.742,2.43,5.864,2.43  s4.245-0.809,5.864-2.43l37.473-37.472c6.681,9.126,10.295,20.104,10.295,31.608c0,29.573-24.06,53.633-53.633,53.633  s-53.633-24.06-53.633-53.633s24.06-53.633,53.633-53.633c2.571,0,5.153,0.184,7.674,0.544c4.537,0.65,8.736-2.501,9.385-7.035  c0.649-4.535-2.501-8.736-7.035-9.385c-3.298-0.472-6.67-0.711-10.024-0.711c-38.72,0-70.22,31.501-70.22,70.22  s31.501,70.22,70.22,70.22s70.22-31.501,70.22-70.22c0-15.936-5.306-31.098-15.054-43.437l25.917-25.917  c16.561,19.324,25.629,43.716,25.629,69.354c0,58.841-47.871,106.713-106.713,106.713S122.747,341.381,122.747,282.54  s47.871-106.713,106.713-106.713c4.58,0,8.294-3.713,8.294-8.294s-3.713-8.294-8.294-8.294c-67.988,0-123.3,55.313-123.3,123.3  s55.313,123.3,123.3,123.3s123.3-55.313,123.3-123.3c0-30.058-10.772-58.644-30.446-81.125l25.845-25.845  c26.521,29.401,41.093,67.257,41.093,106.97c0,88.11-71.682,159.793-159.793,159.793c-36.687,0-72.52-12.741-100.897-35.878  c-3.55-2.894-8.775-2.363-11.669,1.188c-2.894,3.55-2.363,8.775,1.188,11.669c31.328,25.542,70.883,39.609,111.378,39.609  c97.257,0,176.38-79.123,176.38-176.38c0-44.123-16.301-86.166-45.941-118.71l25.83-25.83  c36.531,39.456,56.603,90.606,56.603,144.54c0,117.378-95.494,212.873-212.873,212.873S16.587,399.918,16.587,282.54  S112.082,69.667,229.46,69.667c45.18,0,88.332,13.968,124.791,40.394c3.709,2.688,8.893,1.86,11.582-1.848  c2.688-3.709,1.861-8.894-1.848-11.582C324.677,68.139,278.16,53.08,229.46,53.08C102.935,53.08,0,156.015,0,282.54  S102.935,512,229.46,512s229.46-102.935,229.46-229.46c0-58.351-21.8-113.678-61.458-156.274l21.212-21.212H450.626z   M423.533,64.808l36.492-36.492V43.68c0,4.58,3.713,8.294,8.294,8.294h15.364l-36.492,36.492h-23.658V64.808z"/>
<g>
</g>
<g>
</g>
<g>
</g>
<g>
</g>
<g>
</g>
<g>
</g>
<g>
</g>
<g>
</g>
<g>
</g>
<g>
</g>
<g>
</g>
<g>
</g>
<g>
</g>
<g>
</g>
<g>
</g>
</svg>
