<?xml version="1.0" encoding="iso-8859-1"?>
<!-- Generator: Adobe Illustrator 19.0.0, SVG Export Plug-In . SVG Version: 6.00 Build 0)  -->
<svg xmlns="http://www.w3.org/2000/svg" xmlns:xlink="http://www.w3.org/1999/xlink" version="1.1" id="Layer_1" x="0px" y="0px" viewBox="0 0 511.999 511.999" style="enable-background:new 0 0 511.999 511.999;" xml:space="preserve">
<circle style="fill:#70B9E5;" cx="268.428" cy="268.428" r="235.128"/>
<circle style="fill:#84C9FE;" cx="268.428" cy="268.428" r="171.028"/>
<circle style="fill:#FC3F49;" cx="268.428" cy="268.428" r="108.651"/>
<circle style="fill:#FEE570;" cx="268.428" cy="268.428" r="46.063"/>
<circle style="fill:#D8A601;" cx="268.428" cy="268.428" r="18.914"/>
<g>
	<path style="fill:#FFFFFF;" d="M268.428,202.284c-5.935,0-10.763-4.828-10.763-10.763c0-5.935,4.828-10.763,10.763-10.763   s10.763,4.828,10.763,10.763C279.191,197.456,274.363,202.284,268.428,202.284z"/>
	<path style="fill:#FFFFFF;" d="M268.428,139.123c-5.935,0-10.763-4.828-10.763-10.763c0-5.935,4.828-10.763,10.763-10.763   s10.763,4.828,10.763,10.763C279.191,134.295,274.363,139.123,268.428,139.123z"/>
	<path style="fill:#FFFFFF;" d="M268.428,74.989c-5.935,0-10.763-4.828-10.763-10.763s4.828-10.763,10.763-10.763   s10.763,4.828,10.763,10.763S274.363,74.989,268.428,74.989z"/>
	<path style="fill:#FFFFFF;" d="M268.428,484.366c-5.935,0-10.763-4.828-10.763-10.763s4.828-10.763,10.763-10.763   s10.763,4.828,10.763,10.763S274.363,484.366,268.428,484.366z"/>
	<path style="fill:#FFFFFF;" d="M268.428,419.797c-5.935,0-10.763-4.828-10.763-10.763s4.828-10.763,10.763-10.763   s10.763,4.828,10.763,10.763S274.363,419.797,268.428,419.797z"/>
	<path style="fill:#FFFFFF;" d="M268.428,355.1c-5.935,0-10.763-4.828-10.763-10.763s4.828-10.763,10.763-10.763   s10.763,4.828,10.763,10.763S274.363,355.1,268.428,355.1z"/>
	<path style="fill:#FFFFFF;" d="M333.697,269.055c0-5.935,4.828-10.763,10.763-10.763s10.763,4.828,10.763,10.763   c0,5.935-4.828,10.763-10.763,10.763S333.697,274.99,333.697,269.055z"/>
	<path style="fill:#FFFFFF;" d="M395.332,269.055c0-5.935,4.828-10.763,10.763-10.763c5.935,0,10.763,4.828,10.763,10.763   c0,5.935-4.828,10.763-10.763,10.763C400.16,279.818,395.332,274.99,395.332,269.055z"/>
	<path style="fill:#FFFFFF;" d="M461.462,269.055c0-5.935,4.828-10.763,10.763-10.763s10.763,4.828,10.763,10.763   c0,5.935-4.828,10.763-10.763,10.763S461.462,274.99,461.462,269.055z"/>
	<path style="fill:#FFFFFF;" d="M53.868,269.055c0-5.935,4.828-10.763,10.763-10.763s10.763,4.828,10.763,10.763   c0,5.935-4.828,10.763-10.763,10.763S53.868,274.99,53.868,269.055z"/>
	<path style="fill:#FFFFFF;" d="M117.686,269.055c0-5.935,4.828-10.763,10.763-10.763s10.763,4.828,10.763,10.763   c0,5.935-4.828,10.763-10.763,10.763C122.514,279.818,117.686,274.99,117.686,269.055z"/>
	<path style="fill:#FFFFFF;" d="M181.258,269.055c0-5.935,4.828-10.763,10.763-10.763c5.935,0,10.763,4.828,10.763,10.763   c0,5.935-4.828,10.763-10.763,10.763C186.085,279.818,181.258,274.99,181.258,269.055z"/>
</g>
<g>
	<path style="fill:#232323;" d="M440.174,95.713c-3.306-3.288-8.654-3.275-11.944,0.034c-3.289,3.307-3.274,8.656,0.034,11.944   c43.103,42.864,66.842,99.949,66.842,160.737c0,124.991-101.688,226.68-226.679,226.68c-61.029,0-118.273-23.901-161.189-67.301   c-3.28-3.315-8.626-3.348-11.944-0.068c-3.316,3.28-3.347,8.627-0.068,11.944c46.112,46.634,107.624,72.315,173.2,72.315   c65.06,0,126.226-25.336,172.231-71.34c46.004-46.005,71.34-107.171,71.34-172.23C511.999,203.109,486.492,141.771,440.174,95.713z   "/>
	<path style="fill:#232323;" d="M128.774,87.703c1.744,0,3.505-0.539,5.016-1.655c39.189-28.98,85.746-44.298,134.639-44.298   c48.036,0,93.928,14.831,132.716,42.893c3.78,2.734,9.062,1.887,11.794-1.893c2.735-3.779,1.887-9.06-1.892-11.794   c-41.688-30.158-91.004-46.099-142.619-46.099c-52.535,0-102.566,16.463-144.683,47.609c-3.751,2.774-4.543,8.062-1.769,11.813   C123.633,86.518,126.186,87.703,128.774,87.703z"/>
	<path style="fill:#232323;" d="M84.104,122.196c-3.753-2.768-9.041-1.971-11.811,1.783   c-31.033,42.069-47.437,92.019-47.437,144.448c0,51.535,15.896,100.789,45.969,142.438c1.651,2.287,4.234,3.502,6.855,3.502   c1.713,0,3.443-0.519,4.937-1.599c3.782-2.731,4.634-8.01,1.903-11.792c-27.981-38.752-42.772-84.587-42.772-132.548   c0-48.795,15.263-95.276,44.138-134.421C88.656,130.253,87.857,124.965,84.104,122.196z"/>
	<path style="fill:#232323;" d="M268.428,447.898c98.96,0,179.47-80.51,179.47-179.471s-80.51-179.47-179.47-179.47   c-35.087,0-69.076,10.127-98.293,29.288c-3.901,2.557-4.989,7.793-2.431,11.694c2.557,3.901,7.795,4.989,11.694,2.431   c26.458-17.349,57.243-26.521,89.03-26.521c89.647,0,162.578,72.933,162.578,162.578s-72.93,162.578-162.577,162.578   S105.85,358.074,105.85,268.428c0-31.646,9.096-62.316,26.303-88.699c2.548-3.908,1.447-9.141-2.46-11.688   c-3.907-2.547-9.141-1.448-11.688,2.46c-19.004,29.135-29.048,62.997-29.048,97.927   C88.958,367.388,169.468,447.898,268.428,447.898z"/>
	<path style="fill:#232323;" d="M174.486,213.163c-4.188-2.047-9.248-0.314-11.299,3.876c-7.864,16.078-11.85,33.367-11.85,51.388   c0,64.565,52.527,117.092,117.092,117.092c64.564,0,117.092-52.527,117.092-117.092s-52.529-117.092-117.093-117.092   c-18.135,0-35.524,4.036-51.683,11.996c-4.184,2.062-5.906,7.125-3.845,11.309c2.063,4.185,7.125,5.907,11.309,3.845   c13.817-6.805,28.693-10.257,44.218-10.257c55.251,0,100.2,44.949,100.2,100.2s-44.949,100.2-100.2,100.2   s-100.2-44.949-100.2-100.2c0-15.427,3.409-30.219,10.133-43.966C180.411,220.272,178.675,215.213,174.486,213.163z"/>
	<path style="fill:#232323;" d="M70.119,82.063l-33.263-2.22c-4.643-0.307-8.679,3.211-8.99,7.865s3.211,8.679,7.865,8.99   l52.529,3.506l136.14,136.14c-6.582,9.009-10.481,20.097-10.481,32.084c0,1.631,0.073,3.274,0.216,4.88   c1.202,13.514,7.382,26.032,17.401,35.248c10.082,9.274,23.184,14.381,36.891,14.381c30.056,0,54.509-24.453,54.509-54.509   c0-28.329-22.105-52.204-50.324-54.351c-1.382-0.105-2.791-0.159-4.186-0.159c-11.987,0-23.075,3.899-32.084,10.481L100.204,88.258   L96.7,35.73c-0.311-4.653-4.332-8.18-8.99-7.865c-4.654,0.311-8.176,4.336-7.865,8.99l2.22,33.263l-9.706-9.706L68.853,7.884   c-0.311-4.654-4.326-8.172-8.99-7.865c-4.654,0.311-8.176,4.336-7.865,8.99l2.22,33.263l-2.562-2.562   c-3.298-3.3-8.647-3.298-11.944,0c-3.298,3.298-3.298,8.647,0,11.944l2.562,2.562l-33.264-2.22   c-4.662-0.301-8.679,3.211-8.99,7.865s3.211,8.679,7.865,8.99l52.528,3.505L70.119,82.063z M268.428,230.811   c0.97,0,1.947,0.037,2.903,0.11c19.465,1.481,34.713,17.956,34.713,37.507c0,20.741-16.874,37.617-37.617,37.617   c-19.303,0-35.761-15.037-37.468-34.236c-0.099-1.111-0.15-2.25-0.15-3.381c0-7.319,2.108-14.15,5.739-19.934l19.197,19.197   l-7.375-0.492c-4.66-0.302-8.679,3.211-8.99,7.865c-0.311,4.654,3.211,8.679,7.865,8.99l27.98,1.867   c0.188,0.012,0.375,0.019,0.562,0.019c2.232,0,4.384-0.885,5.973-2.474c1.722-1.722,2.616-4.105,2.455-6.534l-1.866-27.98   c-0.311-4.655-4.342-8.176-8.989-7.865c-4.654,0.311-8.176,4.336-7.865,8.989l0.249,3.724l-17.25-17.25   C254.278,232.918,261.11,230.811,268.428,230.811z"/>
</g>
<g>
</g>
<g>
</g>
<g>
</g>
<g>
</g>
<g>
</g>
<g>
</g>
<g>
</g>
<g>
</g>
<g>
</g>
<g>
</g>
<g>
</g>
<g>
</g>
<g>
</g>
<g>
</g>
<g>
</g>
</svg>
