<?xml version="1.0" encoding="iso-8859-1"?>
<!-- Generator: Adobe Illustrator 19.0.0, SVG Export Plug-In . SVG Version: 6.00 Build 0)  -->
<svg version="1.1" id="Layer_1" xmlns="http://www.w3.org/2000/svg" xmlns:xlink="http://www.w3.org/1999/xlink" x="0px" y="0px"
	 viewBox="0 0 512 512" style="enable-background:new 0 0 512 512;" xml:space="preserve">
<circle style="fill:#0082CA;" cx="247.992" cy="264.001" r="240.004"/>
<path style="fill:#FFFFFF;" d="M247.996,435.891c-94.779,0-171.887-77.11-171.887-171.886c0-94.779,77.108-171.888,171.887-171.888
	s171.887,77.11,171.887,171.888C419.883,358.781,342.773,435.891,247.996,435.891z"/>
<path style="fill:#FFC843;" d="M247.996,367.771c-57.218,0-103.767-46.55-103.767-103.766c0-57.219,46.55-103.77,103.767-103.77
	c57.218,0,103.767,46.55,103.767,103.77C351.763,321.22,305.213,367.771,247.996,367.771z"/>
<path style="fill:#333E48;" d="M238.641,249.76c-6.516,6.516-6.516,17.08,0,23.6c6.517,6.517,17.083,6.514,23.599-0.002
	l181.33-181.329c6.515-6.513,6.517-17.08-0.002-23.598c-6.515-6.516-17.081-6.516-23.598,0L238.641,249.76z"/>
<path style="opacity:0.2;enable-background:new    ;" d="M238.641,273.36c6.517,6.517,17.083,6.514,23.599-0.002l181.33-181.329
	c6.515-6.513,6.517-17.08-0.002-23.598L238.641,273.36z"/>
<g>
	<polygon style="fill:#0055B8;" points="419.429,68.967 351.779,136.622 334.619,75.638 402.271,7.988 	"/>
	<polygon style="fill:#0055B8;" points="443.029,92.569 375.377,160.221 436.36,177.383 504.011,109.728 	"/>
</g>
<polygon style="opacity:0.2;enable-background:new    ;" points="348.071,123.45 351.779,136.622 419.429,68.967 415.724,55.798 "/>
<polygon style="opacity:0.2;enable-background:new    ;" points="443.029,92.569 375.377,160.221 388.547,163.928 456.2,96.276 "/>
<path style="fill:#1E252B;" d="M511.74,107.709c-0.717-2.745-2.835-4.903-5.565-5.671L455.28,87.717
	c0.757-2.391,1.164-4.906,1.164-7.486c0-6.591-2.567-12.789-7.228-17.449c-4.66-4.661-10.856-7.228-17.447-7.228
	c-2.581,0-5.097,0.407-7.488,1.165L409.961,5.824c-0.768-2.73-2.927-4.848-5.671-5.566c-2.743-0.713-5.661,0.076-7.668,2.08
	l-39.121,39.12c-33.827-16.655-71.552-25.451-109.506-25.451c-66.242,0-128.519,25.796-175.359,72.636
	C25.796,135.485,0,197.762,0,264.005c0,66.241,25.796,128.519,72.636,175.359c46.84,46.841,109.118,72.636,175.359,72.636
	c66.242,0,128.519-25.796,175.36-72.636c46.84-46.839,72.636-109.116,72.636-175.359c0-37.953-8.795-75.679-25.45-109.507
	l39.119-39.121C511.664,113.371,512.457,110.453,511.74,107.709z M425.618,74.08c1.642-1.643,3.828-2.549,6.151-2.549
	c2.323,0,4.507,0.905,6.15,2.549c1.643,1.643,2.549,3.828,2.549,6.151c0,2.323-0.904,4.507-2.547,6.148l-181.33,181.331
	c-1.643,1.643-3.828,2.549-6.152,2.549c-2.323,0-4.507-0.904-6.147-2.546c-3.391-3.395-3.392-8.913-0.001-12.304L425.618,74.08z
	 M232.992,279.008c4.66,4.661,10.856,7.227,17.446,7.227c0,0,0,0,0.001,0c6.592,0,12.789-2.567,17.45-7.228l62.97-62.97
	c8.466,14.538,12.916,30.94,12.916,47.968c0,52.812-42.966,95.778-95.779,95.778s-95.779-42.966-95.779-95.778
	c0-52.814,42.966-95.781,95.779-95.781c17.026,0,33.428,4.452,47.967,12.917l-62.97,62.97
	C223.373,253.729,223.372,269.384,232.992,279.008z M247.996,152.247c-61.623,0-111.756,50.134-111.756,111.758
	c0,61.623,50.133,111.755,111.756,111.755s111.756-50.132,111.756-111.755c0-21.296-5.963-41.752-17.267-59.593l35.232-35.232
	l4.845,1.362c19.197,27.54,29.332,59.793,29.332,93.462c0,90.374-73.524,163.898-163.899,163.898S84.097,354.377,84.097,264.005
	c0-90.375,73.524-163.9,163.899-163.9c33.671,0,65.924,10.137,93.463,29.333l1.362,4.843l-35.234,35.233
	C289.746,158.209,269.287,152.247,247.996,152.247z M398.275,23.281l12.198,43.349l-54.698,54.698l-12.199-43.35L398.275,23.281z
	 M480.013,264.005c0,61.974-24.135,120.24-67.957,164.061c-43.822,43.823-102.088,67.957-164.062,67.957
	s-120.24-24.134-164.062-67.957c-43.821-43.822-67.956-102.088-67.956-164.061c0-61.975,24.135-120.241,67.957-164.063
	s102.088-67.957,164.062-67.957c33.682,0,67.162,7.409,97.519,21.461L328.97,69.989c-2.044,2.044-2.824,5.032-2.042,7.813
	l8.106,28.808c-26.54-14.762-56.25-22.482-87.04-22.482c-99.184,0-179.876,80.693-179.876,179.877
	c0,99.183,80.692,179.875,179.876,179.875S427.87,363.189,427.87,264.006c0-30.788-7.72-60.499-22.48-87.039l28.806,8.106
	c0.714,0.2,1.441,0.298,2.163,0.298c2.09,0,4.131-0.821,5.649-2.34l16.545-16.545C472.604,196.842,480.013,230.322,480.013,264.005z
	 M434.02,168.425l-43.352-12.199l54.7-54.7l43.349,12.198L434.02,168.425z"/>
<g>
</g>
<g>
</g>
<g>
</g>
<g>
</g>
<g>
</g>
<g>
</g>
<g>
</g>
<g>
</g>
<g>
</g>
<g>
</g>
<g>
</g>
<g>
</g>
<g>
</g>
<g>
</g>
<g>
</g>
</svg>
