<?xml version="1.0" encoding="iso-8859-1"?>
<!-- Generator: Adobe Illustrator 19.0.0, SVG Export Plug-In . SVG Version: 6.00 Build 0)  -->
<svg xmlns="http://www.w3.org/2000/svg" xmlns:xlink="http://www.w3.org/1999/xlink" version="1.1" id="Layer_1" x="0px" y="0px" viewBox="0 0 512 512" style="enable-background:new 0 0 512 512;" xml:space="preserve">
<path style="fill:#E6E6E6;" d="M470.738,34.301H41.262c-18.606,0-33.69,15.084-33.69,33.69v376.02  c0,18.606,15.084,33.69,33.69,33.69h429.476c18.606,0,33.69-15.084,33.69-33.69V67.99C504.428,49.384,489.344,34.301,470.738,34.301  z"/>
<path style="fill:#FFFFFF;" d="M434.924,115.521H77.076c-13.026,0-23.585,10.559-23.585,23.585v266.278  c0,13.026,10.559,23.585,23.585,23.585h357.846c13.026,0,23.585-10.56,23.585-23.585V139.105  C458.508,126.08,447.949,115.521,434.924,115.521z"/>
<path style="fill:#4FC2F8;" d="M375.935,167.821H136.065c-8.175,0-14.802,6.627-14.802,14.802v36.643  c0,8.175,6.627,14.802,14.802,14.802h239.871c8.175,0,14.802-6.627,14.802-14.802v-36.643  C390.737,174.448,384.11,167.821,375.935,167.821z"/>
<path style="fill:#EE534F;" d="M202.555,272.244h-64.89c-9.059,0-16.402,7.344-16.402,16.402v80.538  c0,9.059,7.344,16.402,16.402,16.402h64.89c9.059,0,16.402-7.344,16.402-16.402v-80.537  C218.958,279.588,211.615,272.244,202.555,272.244z"/>
<path style="opacity:0.1;enable-background:new    ;" d="M88.341,444.011V67.99c0-18.606,15.084-33.69,33.691-33.69H41.263  c-18.607,0-33.691,15.084-33.691,33.69v376.02c0,18.606,15.084,33.691,33.691,33.691h80.769  C103.424,477.7,88.341,462.617,88.341,444.011z"/>
<path d="M41.263,485.272h429.476c22.751,0,41.262-18.51,41.262-41.263V67.99c0-22.753-18.51-41.263-41.262-41.263H129.482  c-4.182,0-7.572,3.39-7.572,7.572s3.39,7.572,7.572,7.572h341.256c14.401,0,26.117,11.716,26.117,26.119V444.01  c0,14.402-11.716,26.119-26.117,26.119H41.263c-14.402,0-26.119-11.717-26.119-26.119v-66.916c0-4.182-3.39-7.572-7.572-7.572  S0,372.912,0,377.094v66.916C0,466.762,18.51,485.272,41.263,485.272z"/>
<path d="M99.194,26.729H41.263C18.51,26.729,0,45.239,0,67.99v278.816c0,4.182,3.39,7.572,7.572,7.572s7.572-3.39,7.572-7.572V67.99  c0-14.402,11.716-26.119,26.119-26.119h57.931c4.182,0,7.572-3.39,7.572-7.572S103.376,26.729,99.194,26.729z"/>
<path d="M382.346,436.54h52.576c17.18,0,31.157-13.977,31.157-31.156v-188.51c0-4.182-3.39-7.572-7.572-7.572  s-7.572,3.39-7.572,7.572v188.509c0,8.829-7.183,16.012-16.013,16.012h-52.576c-4.182,0-7.572,3.39-7.572,7.572  S378.164,436.54,382.346,436.54z"/>
<path d="M45.92,139.106v266.278c0,17.18,13.977,31.156,31.156,31.156h274.982c4.182,0,7.572-3.39,7.572-7.572  s-3.39-7.572-7.572-7.572H77.076c-8.83,0-16.012-7.183-16.012-16.012V139.106c0-8.83,7.183-16.013,16.012-16.013h357.846  c8.83,0,16.013,7.183,16.013,16.013v47.48c0,4.182,3.39,7.572,7.572,7.572s7.572-3.39,7.572-7.572v-47.48  c0-17.18-13.977-31.157-31.157-31.157H77.076C59.897,107.949,45.92,121.926,45.92,139.106z"/>
<circle cx="436.564" cy="75.489" r="16.785"/>
<circle cx="380.975" cy="75.489" r="16.785"/>
<circle cx="325.386" cy="75.489" r="16.785"/>
<path d="M398.309,219.266v-36.643c0-12.336-10.036-22.374-22.374-22.374H136.065c-12.337,0-22.374,10.036-22.374,22.374v36.643  c0,12.337,10.037,22.374,22.374,22.374h239.871C388.273,241.64,398.309,231.602,398.309,219.266z M128.835,219.266v-36.643  c0-3.986,3.243-7.23,7.23-7.23h239.871c3.986,0,7.23,3.243,7.23,7.23v36.643c0,3.987-3.243,7.23-7.23,7.23H136.065  C132.078,226.496,128.835,223.253,128.835,219.266z"/>
<path d="M137.665,264.672c-13.22,0-23.974,10.754-23.974,23.974v80.538c0,13.22,10.754,23.974,23.974,23.974h64.89  c13.22,0,23.974-10.754,23.974-23.974v-80.538c0-13.22-10.754-23.974-23.974-23.974H137.665z M211.386,288.646v80.538  c0,4.868-3.961,8.83-8.83,8.83h-64.89c-4.869,0-8.83-3.962-8.83-8.83v-80.538c0-4.868,3.961-8.83,8.83-8.83h64.89  C207.425,279.816,211.386,283.778,211.386,288.646z"/>
<path d="M390.737,264.672H267.532c-4.182,0-7.572,3.39-7.572,7.572c0,4.183,3.39,7.572,7.572,7.572h123.205  c4.182,0,7.572-3.389,7.572-7.572C398.309,268.063,394.919,264.672,390.737,264.672z"/>
<path d="M390.737,302.454H267.532c-4.182,0-7.572,3.389-7.572,7.572c0,4.182,3.39,7.572,7.572,7.572h123.205  c4.182,0,7.572-3.39,7.572-7.572C398.309,305.844,394.919,302.454,390.737,302.454z"/>
<path d="M390.737,340.234H267.532c-4.182,0-7.572,3.39-7.572,7.572c0,4.183,3.39,7.572,7.572,7.572h123.205  c4.182,0,7.572-3.389,7.572-7.572C398.309,343.624,394.919,340.234,390.737,340.234z"/>
<path d="M267.532,393.16h123.205c4.182,0,7.572-3.39,7.572-7.572c0-4.183-3.39-7.572-7.572-7.572H267.532  c-4.182,0-7.572,3.389-7.572,7.572C259.96,389.769,263.35,393.16,267.532,393.16z"/>
<g>
</g>
<g>
</g>
<g>
</g>
<g>
</g>
<g>
</g>
<g>
</g>
<g>
</g>
<g>
</g>
<g>
</g>
<g>
</g>
<g>
</g>
<g>
</g>
<g>
</g>
<g>
</g>
<g>
</g>
</svg>
